<svg width="102" height="32" viewBox="0 0 102 32" fill="none" xmlns="http://www.w3.org/2000/svg">
<g clip-path="url(#clip0_129_11052)">
<path d="M54.1759 7.87906C54.1759 8.99021 53.2668 9.94984 52.1052 9.94984C50.9435 9.94984 50.0344 9.04072 50.0344 7.87906C50.0344 6.71741 50.893 5.80828 52.1052 5.80828C53.3173 5.9093 54.1759 6.81842 54.1759 7.87906ZM45.7413 12.0206C45.7413 12.2226 45.7413 12.5257 45.7413 12.5257C45.7413 12.5257 44.7817 11.263 42.7109 11.263C39.2764 11.263 36.5996 13.8894 36.5996 17.4754C36.5996 21.0613 39.2259 23.6877 42.7109 23.6877C44.8322 23.6877 45.7413 22.3745 45.7413 22.3745V22.9301C45.7413 23.1826 45.9433 23.3847 46.1959 23.3847H48.7212V11.5661C48.7212 11.5661 46.3979 11.5661 46.1959 11.5661C45.9433 11.5661 45.7413 11.8186 45.7413 12.0206ZM45.7413 19.5966C45.2867 20.3037 44.3271 20.9098 43.216 20.9098C41.1957 20.9098 39.6805 19.6472 39.6805 17.5259C39.6805 15.4046 41.2462 14.1419 43.216 14.1419C44.3271 14.1419 45.3373 14.748 45.7413 15.4551V19.5966ZM50.6405 11.5661H53.6709V23.3847H50.6405V11.5661ZM95.7431 11.263C93.6723 11.263 92.7127 12.5257 92.7127 12.5257V5.9093H89.6822V23.4352C89.6822 23.4352 92.0056 23.4352 92.2076 23.4352C92.4601 23.4352 92.6621 23.2331 92.6621 22.9806V22.425C92.6621 22.425 93.6218 23.7382 95.6926 23.7382C99.127 23.7382 101.804 21.1119 101.804 17.5259C101.854 13.8894 99.1775 11.263 95.7431 11.263ZM95.238 20.8593C94.0763 20.8593 93.1672 20.2532 92.7127 19.5461V15.3036C93.1672 14.6975 94.1774 13.9904 95.238 13.9904C97.2583 13.9904 98.7735 15.2531 98.7735 17.3743C98.7735 19.4956 97.2583 20.8593 95.238 20.8593ZM88.1165 16.4147V23.4857H85.0861V16.7683C85.0861 14.7985 84.48 14.0409 82.7628 14.0409C81.8537 14.0409 80.8941 14.4955 80.288 15.2026V23.4352H77.2576V11.5661H79.6314C79.8839 11.5661 80.0859 11.7681 80.0859 12.0206V12.5257C80.9446 11.6166 82.1567 11.263 83.3184 11.263C84.6316 11.263 85.7427 11.6166 86.6013 12.3742C87.7125 13.2833 88.1165 14.3944 88.1165 16.4147ZM69.9341 11.263C67.8633 11.263 66.9037 12.5257 66.9037 12.5257V5.9093H63.8733V23.4352C63.8733 23.4352 66.1966 23.4352 66.3986 23.4352C66.6511 23.4352 66.8532 23.2331 66.8532 22.9806V22.425C66.8532 22.425 67.8128 23.7382 69.8836 23.7382C73.318 23.7382 75.9949 21.1119 75.9949 17.5259C76.0454 13.8894 73.3685 11.263 69.9341 11.263ZM69.429 20.8593C68.2673 20.8593 67.3582 20.2532 66.9037 19.5461V15.3036C67.3582 14.6975 68.3684 13.9904 69.429 13.9904C71.4493 13.9904 72.9645 15.2531 72.9645 17.3743C72.9645 19.4956 71.4493 20.8593 69.429 20.8593ZM61.2469 11.263C62.156 11.263 62.6106 11.4145 62.6106 11.4145V14.1924C62.6106 14.1924 60.0852 13.3338 58.5195 15.152V23.4352H55.4891V11.5661C55.4891 11.5661 57.8124 11.5661 58.0145 11.5661C58.267 11.5661 58.469 11.7681 58.469 12.0206V12.5257C59.0751 11.8691 60.3378 11.263 61.2469 11.263ZM29.8822 22.3745C29.7306 22.021 29.5791 21.5664 29.4276 21.2634C29.1751 20.7078 28.9225 20.1522 28.7205 19.6472L28.67 19.5966C26.4982 14.8995 24.1749 10.1014 21.7001 5.35372L21.599 5.1517C21.3465 4.69713 21.094 4.19207 20.8414 3.687C20.5384 3.13142 20.2354 2.52534 19.7303 1.96977C18.7202 0.707096 17.2555 0 15.7403 0C14.1745 0 12.7604 0.707096 11.6997 1.86875C11.1946 2.47483 10.8411 3.03041 10.5381 3.63649C10.2855 4.14156 10.033 4.64663 9.78045 5.10119L9.67944 5.30322C7.25511 10.0003 4.88129 14.7985 2.7095 19.5461L2.65899 19.5966C2.45696 20.1017 2.20443 20.6573 1.95189 21.2129C1.80037 21.5664 1.64885 21.92 1.49733 22.324C1.09328 23.4857 0.941757 24.5968 1.14378 25.708C1.49733 28.0818 3.06304 30.0516 5.23484 30.9102C6.04295 31.2637 6.90156 31.4152 7.76018 31.4152C8.01271 31.4152 8.31575 31.3647 8.56829 31.3647C9.62893 31.2637 10.6896 30.9102 11.6997 30.3041C13.0129 29.597 14.2251 28.5364 15.5887 27.0211C16.9524 28.5364 18.2151 29.5465 19.4778 30.3041C20.5384 30.9102 21.599 31.2637 22.6092 31.3647C22.8617 31.4152 23.1648 31.4152 23.4173 31.4152C24.2759 31.4152 25.185 31.2637 25.9426 30.9102C28.1649 30.0516 29.6801 28.0313 30.0337 25.708C30.3872 24.5968 30.2862 23.5362 29.8822 22.3745ZM15.6897 23.9907C13.9725 21.8695 12.9119 19.8492 12.5078 18.1319C12.3563 17.4249 12.3058 16.7683 12.4068 16.2127C12.4573 15.7076 12.6593 15.2531 12.9119 14.8995C13.518 14.0409 14.5281 13.5358 15.6897 13.5358C16.8514 13.5358 17.9121 14.0409 18.4676 14.8995C18.7202 15.2531 18.9222 15.7076 18.9727 16.2127C19.0737 16.7683 19.0232 17.4249 18.8717 18.1319C18.4676 19.7987 17.3565 21.8189 15.6897 23.9907ZM28.2154 25.4554C28.0134 27.0717 26.9023 28.4858 25.3366 29.1424C24.579 29.4455 23.7708 29.5465 22.9627 29.4455C22.1546 29.3445 21.397 29.0919 20.5889 28.6374C19.4778 28.0313 18.3161 27.0211 17.0029 25.607C19.0737 23.0816 20.3364 20.7078 20.7909 18.637C20.993 17.6774 21.0435 16.7683 20.9425 15.9602C20.8414 15.152 20.5384 14.445 20.0838 13.8389C19.1242 12.4247 17.4575 11.6166 15.6392 11.6166C13.821 11.6166 12.1543 12.4752 11.1946 13.8389C10.7401 14.445 10.4875 15.2026 10.336 15.9602C10.235 16.7683 10.235 17.6774 10.4875 18.637C10.9421 20.7078 12.2553 23.0816 14.2756 25.607C12.9624 27.0717 11.8007 28.0313 10.6896 28.6374C9.88146 29.0919 9.07336 29.3445 8.31575 29.4455C7.45714 29.5465 6.64903 29.395 5.94193 29.1424C4.37622 28.5364 3.31558 27.0717 3.06304 25.4554C2.96203 24.6473 3.01254 23.8897 3.36608 22.9806C3.4671 22.6776 3.61862 22.3745 3.77014 21.9705C3.97217 21.4654 4.2247 20.9098 4.47723 20.4048L4.52774 20.3542C6.69953 15.6571 9.02285 10.859 11.4472 6.21234L11.5482 6.01031C11.8007 5.55575 12.0533 5.05068 12.3058 4.54561C12.5583 4.04055 12.8614 3.58598 13.1644 3.18193C13.821 2.42433 14.7301 2.02027 15.6897 2.02027C16.6494 2.02027 17.5585 2.42433 18.2151 3.18193C18.5686 3.58598 18.8212 4.04055 19.0737 4.54561C19.3262 5.00017 19.5788 5.50524 19.8313 6.01031L19.9323 6.21234C22.3061 10.9095 24.6295 15.7076 26.8013 20.3542V20.4048C27.0538 20.9098 27.2558 21.4654 27.5083 21.9705C27.6599 22.324 27.8114 22.6776 27.9124 22.9806C28.2659 23.8392 28.367 24.6473 28.2154 25.4554Z" fill="#D1D5DB"/>
</g>
<defs>
<clipPath id="clip0_129_11052">
<rect width="101.014" height="31.8193" fill="white" transform="translate(0.941406)"/>
</clipPath>
</defs>
</svg>
