<svg width="220" height="220" viewBox="0 0 220 220" fill="none" xmlns="http://www.w3.org/2000/svg">
<circle cx="110" cy="110" r="110" fill="#045E5E"/>
<path opacity="0.4" d="M109.999 151.666C133.011 151.666 151.665 133.012 151.665 110C151.665 86.9878 133.011 68.333 109.999 68.333C86.9868 68.333 68.332 86.9878 68.332 110C68.332 133.012 86.9868 151.666 109.999 151.666Z" fill="white"/>
<path d="M85 122.042C83.2917 122.042 81.875 120.625 81.875 118.917V101.042C81.875 99.3337 83.2917 97.917 85 97.917C86.7083 97.917 88.125 99.3337 88.125 101.042V118.917C88.125 120.667 86.7083 122.042 85 122.042Z" fill="white"/>
<path d="M97.5 128C95.7917 128 94.375 126.583 94.375 124.875V95.125C94.375 93.4167 95.7917 92 97.5 92C99.2083 92 100.625 93.4167 100.625 95.125V124.875C100.625 126.625 99.2083 128 97.5 128Z" fill="white"/>
<path d="M110 133.959C108.292 133.959 106.875 132.542 106.875 130.834V89.167C106.875 87.4587 108.292 86.042 110 86.042C111.708 86.042 113.125 87.4587 113.125 89.167V130.834C113.125 132.542 111.708 133.959 110 133.959Z" fill="white"/>
<path d="M122.5 128C120.792 128 119.375 126.583 119.375 124.875V95.125C119.375 93.4167 120.792 92 122.5 92C124.208 92 125.625 93.4167 125.625 95.125V124.875C125.625 126.625 124.208 128 122.5 128Z" fill="white"/>
<path d="M135 122.042C133.292 122.042 131.875 120.625 131.875 118.917V101.042C131.875 99.3337 133.292 97.917 135 97.917C136.708 97.917 138.125 99.3337 138.125 101.042V118.917C138.125 120.667 136.708 122.042 135 122.042Z" fill="white"/>
</svg>
