<svg width="94" height="94" viewBox="0 0 94 94" fill="none" xmlns="http://www.w3.org/2000/svg">
<circle cx="47" cy="47" r="47" fill="#7BBDBC" fill-opacity="0.15"/>
<path opacity="0.4" d="M39.7516 61.8501C39.7016 61.8501 39.6349 61.8834 39.5849 61.8834C36.3516 60.2834 33.7182 57.6334 32.1016 54.4001C32.1016 54.3501 32.1349 54.2834 32.1349 54.2334C34.1682 54.8334 36.2682 55.2834 38.3516 55.6334C38.7182 57.7334 39.1516 59.8167 39.7516 61.8501Z" fill="#045E5E"/>
<path opacity="0.4" d="M61.8984 54.4167C60.2484 57.7334 57.4984 60.4167 54.1484 62.0334C54.7818 59.9167 55.3151 57.7834 55.6651 55.6334C57.7651 55.2834 59.8318 54.8334 61.8651 54.2334C61.8484 54.3001 61.8984 54.3667 61.8984 54.4167Z" fill="#045E5E"/>
<path opacity="0.4" d="M62.0318 39.8501C59.9318 39.2168 57.8151 38.7001 55.6651 38.3335C55.3151 36.1835 54.7984 34.0501 54.1484 31.9668C57.5984 33.6168 60.3818 36.4001 62.0318 39.8501Z" fill="#045E5E"/>
<path opacity="0.4" d="M39.7482 32.1496C39.1482 34.1829 38.7148 36.2496 38.3648 38.3496C36.2148 38.6829 34.0815 39.2163 31.9648 39.8496C33.5815 36.4996 36.2648 33.7496 39.5815 32.0996C39.6315 32.0996 39.6982 32.1496 39.7482 32.1496Z" fill="#045E5E"/>
<path d="M52.8169 37.983C48.9503 37.5497 45.0503 37.5497 41.1836 37.983C41.6003 35.6997 42.1336 33.4163 42.8836 31.2163C42.9169 31.083 42.9003 30.983 42.9169 30.8497C44.2336 30.533 45.5836 30.333 47.0003 30.333C48.4003 30.333 49.7669 30.533 51.0669 30.8497C51.0836 30.983 51.0836 31.083 51.1169 31.2163C51.8669 33.433 52.4003 35.6997 52.8169 37.983Z" fill="#045E5E"/>
<path d="M37.982 52.8169C35.682 52.4003 33.4154 51.8669 31.2154 51.1169C31.082 51.0836 30.982 51.1003 30.8487 51.0836C30.532 49.7669 30.332 48.4169 30.332 47.0003C30.332 45.6003 30.532 44.2336 30.8487 42.9336C30.982 42.9169 31.082 42.9169 31.2154 42.8836C33.432 42.1503 35.682 41.6003 37.982 41.1836C37.5654 45.0503 37.5654 48.9503 37.982 52.8169Z" fill="#045E5E"/>
<path d="M63.6656 47.0003C63.6656 48.4169 63.4656 49.7669 63.149 51.0836C63.0156 51.1003 62.9156 51.0836 62.7823 51.1169C60.5656 51.8503 58.299 52.4003 56.0156 52.8169C56.449 48.9503 56.449 45.0503 56.0156 41.1836C58.299 41.6003 60.5823 42.1336 62.7823 42.8836C62.9156 42.9169 63.0156 42.9336 63.149 42.9336C63.4656 44.2503 63.6656 45.6003 63.6656 47.0003Z" fill="#045E5E"/>
<path d="M52.8169 56.0166C52.4003 58.3166 51.8669 60.5833 51.1169 62.7833C51.0836 62.9166 51.0836 63.0166 51.0669 63.1499C49.7669 63.4666 48.4003 63.6666 47.0003 63.6666C45.5836 63.6666 44.2336 63.4666 42.9169 63.1499C42.9003 63.0166 42.9169 62.9166 42.8836 62.7833C42.1503 60.5666 41.6003 58.3166 41.1836 56.0166C43.1169 56.2333 45.0503 56.3833 47.0003 56.3833C48.9503 56.3833 50.9003 56.2333 52.8169 56.0166Z" fill="#045E5E"/>
<path d="M53.2709 53.2719C49.1024 53.7978 44.895 53.7978 40.7265 53.2719C40.2005 49.1034 40.2005 44.8959 40.7265 40.7275C44.895 40.2015 49.1024 40.2015 53.2709 40.7275C53.7968 44.8959 53.7968 49.1034 53.2709 53.2719Z" fill="#045E5E"/>
</svg>
