<svg width="40" height="40" viewBox="0 0 40 40" fill="none" xmlns="http://www.w3.org/2000/svg">
<path opacity="0.4" d="M26.982 3.33301H13.0154C6.9487 3.33301 3.33203 6.94967 3.33203 13.0163V26.9663C3.33203 33.0497 6.9487 36.6663 13.0154 36.6663H26.9654C33.032 36.6663 36.6487 33.0497 36.6487 26.983V13.0163C36.6654 6.94967 33.0487 3.33301 26.982 3.33301Z" fill="#045E5E"/>
<path d="M11.4648 31.4998C10.7815 31.4998 10.2148 30.9331 10.2148 30.2498V26.7998C10.2148 26.1165 10.7815 25.5498 11.4648 25.5498C12.1482 25.5498 12.7148 26.1165 12.7148 26.7998V30.2498C12.7148 30.9498 12.1482 31.4998 11.4648 31.4998Z" fill="#045E5E"/>
<path d="M20 31.4997C19.3167 31.4997 18.75 30.933 18.75 30.2497V23.333C18.75 22.6497 19.3167 22.083 20 22.083C20.6833 22.083 21.25 22.6497 21.25 23.333V30.2497C21.25 30.9497 20.6833 31.4997 20 31.4997Z" fill="#045E5E"/>
<path d="M28.5312 31.4995C27.8479 31.4995 27.2812 30.9328 27.2812 30.2495V19.8828C27.2812 19.1995 27.8479 18.6328 28.5312 18.6328C29.2146 18.6328 29.7812 19.1995 29.7812 19.8828V30.2495C29.7812 30.9495 29.2312 31.4995 28.5312 31.4995Z" fill="#045E5E"/>
<path d="M29.781 9.7C29.781 9.61667 29.7477 9.51667 29.731 9.43333C29.7144 9.36667 29.6977 9.28333 29.681 9.21667C29.6477 9.15 29.5977 9.1 29.5644 9.03333C29.5144 8.96667 29.4644 8.88333 29.3977 8.83333C29.381 8.81667 29.381 8.8 29.3644 8.8C29.3144 8.76667 29.2644 8.75 29.2144 8.71667C29.1477 8.66667 29.0644 8.61667 28.981 8.58333C28.8977 8.55 28.8144 8.55 28.731 8.53333C28.6644 8.51667 28.6144 8.5 28.5477 8.5H23.6644C22.981 8.5 22.4144 9.06667 22.4144 9.75C22.4144 10.4333 22.981 11 23.6644 11H25.7477C21.781 15.1667 16.781 18.1 11.1644 19.5167C10.4977 19.6833 10.081 20.3667 10.2477 21.0333C10.381 21.6 10.8977 21.9833 11.4644 21.9833C11.5644 21.9833 11.6644 21.9667 11.7644 21.95C17.7144 20.4667 23.031 17.3833 27.281 13.0167V14.6333C27.281 15.3167 27.8477 15.8833 28.531 15.8833C29.2144 15.8833 29.781 15.3167 29.781 14.6333V9.75C29.781 9.73333 29.781 9.71667 29.781 9.7Z" fill="#045E5E"/>
</svg>
