<svg width="94" height="94" viewBox="0 0 94 94" fill="none" xmlns="http://www.w3.org/2000/svg">
<circle cx="47" cy="47" r="47" fill="#7BBDBC" fill-opacity="0.15"/>
<path opacity="0.4" d="M38.6654 32H55.332C60.332 32 63.6654 34.5 63.6654 40.3333V45.5667C63.6654 46.7834 62.4153 47.55 61.2987 47.0667C59.4653 46.2667 57.3821 45.9667 55.1987 46.3167C50.8321 47.0333 47.2654 50.4833 46.382 54.8167C46.132 56.0833 46.0987 57.3167 46.2654 58.5C46.3987 59.4833 45.5987 60.35 44.6154 60.35H38.6654C33.6654 60.35 30.332 57.85 30.332 52.0167V40.35C30.332 34.5 33.6654 32 38.6654 32Z" fill="#045E5E"/>
<path d="M47.0019 46.7829C45.6019 46.7829 44.1852 46.3496 43.1019 45.4663L37.8852 41.2996C37.3519 40.8663 37.2519 40.083 37.6852 39.5496C38.1186 39.0163 38.9019 38.9163 39.4352 39.3496L44.6519 43.5163C45.9186 44.533 48.0686 44.533 49.3352 43.5163L54.5519 39.3496C55.0852 38.9163 55.8852 38.9996 56.3019 39.5496C56.7352 40.083 56.6519 40.8829 56.1019 41.2996L50.8852 45.4663C49.8186 46.3496 48.4019 46.7829 47.0019 46.7829Z" fill="#045E5E"/>
<path d="M57.0013 48.667C52.4013 48.667 48.668 52.3837 48.668 57.0003C48.668 61.6003 52.4013 65.3337 57.0013 65.3337C61.618 65.3337 65.3346 61.6003 65.3346 57.0003C65.3346 52.3837 61.618 48.667 57.0013 48.667ZM60.4179 56.2503L59.8013 56.8503L56.1847 60.4837C56.018 60.6337 55.7013 60.8003 55.4679 60.8336L53.8346 61.067C53.2513 61.1503 52.8346 60.7337 52.9179 60.1503L53.1513 58.517C53.1846 58.2837 53.3346 57.967 53.5013 57.8003L57.1346 54.1837L57.7346 53.567C58.1346 53.167 58.5847 52.9003 59.0513 52.9003C59.4513 52.9003 59.9013 53.0837 60.4013 53.567C61.5013 54.667 61.1513 55.517 60.4179 56.2503Z" fill="#045E5E"/>
</svg>
