<svg width="40" height="40" viewBox="0 0 40 40" fill="none" xmlns="http://www.w3.org/2000/svg">
<path opacity="0.4" d="M26.982 3.33301H13.0154C6.9487 3.33301 3.33203 6.94967 3.33203 13.0163V26.9663C3.33203 33.0497 6.9487 36.6663 13.0154 36.6663H26.9654C33.032 36.6663 36.6487 33.0497 36.6487 26.983V13.0163C36.6654 6.94967 33.0487 3.33301 26.982 3.33301Z" fill="#045E5E"/>
<path d="M25.8326 16.8829C27.563 16.8829 28.9659 15.48 28.9659 13.7495C28.9659 12.0191 27.563 10.6162 25.8326 10.6162C24.1021 10.6162 22.6992 12.0191 22.6992 13.7495C22.6992 15.48 24.1021 16.8829 25.8326 16.8829Z" fill="#045E5E"/>
<path d="M14.1685 16.8829C15.899 16.8829 17.3018 15.48 17.3018 13.7495C17.3018 12.0191 15.899 10.6162 14.1685 10.6162C12.438 10.6162 11.0352 12.0191 11.0352 13.7495C11.0352 15.48 12.438 16.8829 14.1685 16.8829Z" fill="#045E5E"/>
<path d="M25.9995 21.5332H13.9995C12.8328 21.5332 11.8828 22.4832 11.8828 23.6665C11.8828 28.1499 15.5328 31.7999 20.0161 31.7999C24.4995 31.7999 28.1495 28.1499 28.1495 23.6665C28.1328 22.4999 27.1661 21.5332 25.9995 21.5332Z" fill="#045E5E"/>
</svg>
