<svg width="78" height="78" viewBox="0 0 78 78" fill="none" xmlns="http://www.w3.org/2000/svg">
<circle cx="39" cy="39" r="39" fill="#EBF5F5"/>
<path opacity="0.4" d="M47.332 33.9997C47.332 40.4497 41.732 45.6663 34.832 45.6663L33.282 47.533L32.3654 48.6331C31.582 49.5664 30.082 49.3663 29.5654 48.2497L27.332 43.333C24.2987 41.1996 22.332 37.8163 22.332 33.9997C22.332 27.5497 27.932 22.333 34.832 22.333C39.8654 22.333 44.2154 25.1164 46.1654 29.1164C46.9154 30.5997 47.332 32.2497 47.332 33.9997Z" fill="#045E5E"/>
<path d="M55.6685 40.4338C55.6685 44.2505 53.7018 47.6339 50.6685 49.7672L48.4352 54.6838C47.9185 55.8005 46.4185 56.0172 45.6351 55.0672L43.1685 52.1005C39.1351 52.1005 35.5352 50.3172 33.2852 47.5338L34.8351 45.6672C41.7351 45.6672 47.3351 40.4505 47.3351 34.0005C47.3351 32.2505 46.9185 30.6005 46.1685 29.1172C51.6185 30.3672 55.6685 34.9672 55.6685 40.4338Z" fill="#045E5E"/>
<path d="M39.0013 35.25H30.668C29.9846 35.25 29.418 34.6833 29.418 34C29.418 33.3167 29.9846 32.75 30.668 32.75H39.0013C39.6846 32.75 40.2513 33.3167 40.2513 34C40.2513 34.6833 39.6846 35.25 39.0013 35.25Z" fill="#045E5E"/>
</svg>
