<svg width="98" height="32" viewBox="0 0 98 32" fill="none" xmlns="http://www.w3.org/2000/svg">
<g clip-path="url(#clip0_129_11060)">
<path d="M24.8526 11.1849H13.5713V14.5115H21.5743C21.1886 19.1879 17.2835 21.2128 13.5713 21.2128C8.84658 21.2128 4.74864 17.5005 4.74864 12.2938C4.79685 7.23159 8.70195 3.37471 13.6195 3.37471C17.4281 3.37471 19.6459 5.78526 19.6459 5.78526L22.0082 3.37471C22.0082 3.37471 19.0191 0.0481459 13.5231 0.0481459C6.48424 -6.51553e-05 1.13281 5.88168 1.13281 12.2455C1.13281 18.4648 6.19497 24.5394 13.6677 24.5394C20.2244 24.5394 25.0455 20.0557 25.0455 13.4026C25.0455 12.0045 24.8526 11.1849 24.8526 11.1849Z" fill="#D1D5DB"/>
<path d="M34.0603 8.77441C29.432 8.77441 26.1055 12.3902 26.1055 16.5846C26.1055 20.8754 29.3356 24.5394 34.1085 24.5394C38.4475 24.5394 41.9669 21.2129 41.9669 16.681C41.9669 11.426 37.869 8.77441 34.0603 8.77441ZM34.1085 11.8599C36.3744 11.8599 38.5439 13.6919 38.5439 16.6328C38.5439 19.5255 36.4226 21.4057 34.1085 21.4057C31.6015 21.4057 29.6249 19.3808 29.6249 16.5846C29.5767 13.8848 31.5533 11.8599 34.1085 11.8599Z" fill="#D1D5DB"/>
<path d="M51.322 8.77441C46.6937 8.77441 43.3672 12.3902 43.3672 16.5846C43.3672 20.8754 46.5973 24.5394 51.3702 24.5394C55.7092 24.5394 59.2286 21.2129 59.2286 16.681C59.2286 11.426 55.1307 8.77441 51.322 8.77441ZM51.3702 11.8599C53.6361 11.8599 55.8056 13.6919 55.8056 16.6328C55.8056 19.5255 53.6844 21.4057 51.3702 21.4057C48.8632 21.4057 46.8866 19.3808 46.8866 16.5846C46.8384 13.8848 48.815 11.8599 51.3702 11.8599Z" fill="#D1D5DB"/>
<path d="M68.241 8.77441C63.9984 8.77441 60.6719 12.4867 60.6719 16.681C60.6719 21.4057 64.5288 24.5876 68.1928 24.5876C70.4587 24.5876 71.6158 23.6716 72.5318 22.6592V24.2019C72.5318 26.9018 70.8926 28.5409 68.3856 28.5409C65.9751 28.5409 64.7698 26.7571 64.3359 25.7447L61.2504 26.9982C62.3111 29.2641 64.4805 31.6264 68.3374 31.6264C72.5318 31.6264 75.7619 28.9748 75.7619 23.3824V9.25652H72.4354V10.6064C71.4712 9.49758 70.073 8.77441 68.241 8.77441ZM68.5303 11.8599C70.6034 11.8599 72.7246 13.6437 72.7246 16.681C72.7246 19.7665 70.6034 21.4539 68.4821 21.4539C66.2161 21.4539 64.0949 19.6219 64.0949 16.681C64.1431 13.6437 66.3126 11.8599 68.5303 11.8599Z" fill="#D1D5DB"/>
<path d="M90.5169 8.72656C86.5154 8.72656 83.1406 11.9085 83.1406 16.585C83.1406 21.5507 86.9011 24.4916 90.9026 24.4916C94.2292 24.4916 96.3022 22.6596 97.5075 21.0204L94.7595 19.1884C94.0363 20.2972 92.8793 21.3579 90.9026 21.3579C88.6849 21.3579 87.6725 20.1526 87.0457 18.9473L97.6039 14.5601L97.0736 13.2584C96.013 10.8478 93.6506 8.72656 90.5169 8.72656ZM90.6133 11.7639C92.0597 11.7639 93.0721 12.5352 93.5542 13.4512L86.4672 16.3921C86.1779 14.1262 88.3474 11.7639 90.6133 11.7639Z" fill="#D1D5DB"/>
<path d="M78.0781 24.0571H81.5493V0.819336H78.0781V24.0571Z" fill="#D1D5DB"/>
</g>
<defs>
<clipPath id="clip0_129_11060">
<rect width="96.9042" height="31.8193" fill="white" transform="translate(0.988281)"/>
</clipPath>
</defs>
</svg>
