<svg width="40" height="40" viewBox="0 0 40 40" fill="none" xmlns="http://www.w3.org/2000/svg">
<circle cx="20" cy="20" r="20" fill="#EBF5F5"/>
<path d="M15.3681 26.224C13.9708 26.224 12.8721 25.696 12.0721 24.64C11.2828 23.5733 10.8881 22.16 10.8881 20.4C10.8881 18.64 11.2828 17.232 12.0721 16.176C12.8721 15.1093 13.9708 14.576 15.3681 14.576C16.7761 14.576 17.8748 15.1093 18.6641 16.176C19.4535 17.232 19.8481 18.64 19.8481 20.4C19.8481 22.16 19.4535 23.5733 18.6641 24.64C17.8748 25.696 16.7761 26.224 15.3681 26.224ZM13.6721 23.136C14.0561 23.7547 14.6215 24.064 15.3681 24.064C16.1148 24.064 16.6801 23.7493 17.0641 23.12C17.4588 22.4907 17.6561 21.584 17.6561 20.4C17.6561 19.2053 17.4588 18.2933 17.0641 17.664C16.6801 17.0347 16.1148 16.72 15.3681 16.72C14.6215 16.72 14.0561 17.0347 13.6721 17.664C13.2881 18.2933 13.0961 19.2053 13.0961 20.4C13.0961 21.5947 13.2881 22.5067 13.6721 23.136ZM25.6011 19.344C26.3585 19.568 26.9718 19.9627 27.4411 20.528C27.9211 21.0827 28.1611 21.7547 28.1611 22.544C28.1611 23.696 27.7718 24.5973 26.9931 25.248C26.2251 25.8987 25.2811 26.224 24.1611 26.224C23.2865 26.224 22.5025 26.0267 21.8091 25.632C21.1265 25.2267 20.6305 24.6347 20.3211 23.856L22.2091 22.768C22.4865 23.632 23.1371 24.064 24.1611 24.064C24.7265 24.064 25.1638 23.9307 25.4731 23.664C25.7931 23.3867 25.9531 23.0133 25.9531 22.544C25.9531 22.0853 25.7931 21.7173 25.4731 21.44C25.1638 21.1627 24.7265 21.024 24.1611 21.024H23.6811L22.8331 19.744L25.0411 16.864H20.6571V14.8H27.6971V16.624L25.6011 19.344Z" fill="#045E5E"/>
</svg>
