<svg width="40" height="40" viewBox="0 0 40 40" fill="none" xmlns="http://www.w3.org/2000/svg">
<circle cx="20" cy="20" r="20" fill="#EBF5F5"/>
<path d="M15.3916 26.224C13.9942 26.224 12.8956 25.696 12.0956 24.64C11.3062 23.5733 10.9116 22.16 10.9116 20.4C10.9116 18.64 11.3062 17.232 12.0956 16.176C12.8956 15.1093 13.9942 14.576 15.3916 14.576C16.7996 14.576 17.8982 15.1093 18.6876 16.176C19.4769 17.232 19.8716 18.64 19.8716 20.4C19.8716 22.16 19.4769 23.5733 18.6876 24.64C17.8982 25.696 16.7996 26.224 15.3916 26.224ZM13.6956 23.136C14.0796 23.7547 14.6449 24.064 15.3916 24.064C16.1382 24.064 16.7036 23.7493 17.0876 23.12C17.4822 22.4907 17.6796 21.584 17.6796 20.4C17.6796 19.2053 17.4822 18.2933 17.0876 17.664C16.7036 17.0347 16.1382 16.72 15.3916 16.72C14.6449 16.72 14.0796 17.0347 13.6956 17.664C13.3116 18.2933 13.1196 19.2053 13.1196 20.4C13.1196 21.5947 13.3116 22.5067 13.6956 23.136ZM20.5804 26V24.352L24.4044 20.416C25.2578 19.52 25.6844 18.7733 25.6844 18.176C25.6844 17.7387 25.5458 17.3867 25.2684 17.12C25.0018 16.8533 24.6551 16.72 24.2284 16.72C23.3858 16.72 22.7618 17.1573 22.3564 18.032L20.5004 16.944C20.8524 16.176 21.3591 15.5893 22.0204 15.184C22.6818 14.7787 23.4071 14.576 24.1964 14.576C25.2098 14.576 26.0791 14.896 26.8044 15.536C27.5298 16.1653 27.8924 17.0187 27.8924 18.096C27.8924 19.2587 27.2791 20.4533 26.0524 21.68L23.8604 23.872H28.0684V26H20.5804Z" fill="#045E5E"/>
</svg>
