<svg width="40" height="40" viewBox="0 0 40 40" fill="none" xmlns="http://www.w3.org/2000/svg">
<circle cx="20" cy="20" r="20" fill="#EBF5F5"/>
<path d="M17.0634 27.224C15.6661 27.224 14.5674 26.696 13.7674 25.64C12.9781 24.5733 12.5834 23.16 12.5834 21.4C12.5834 19.64 12.9781 18.232 13.7674 17.176C14.5674 16.1093 15.6661 15.576 17.0634 15.576C18.4714 15.576 19.5701 16.1093 20.3594 17.176C21.1488 18.232 21.5434 19.64 21.5434 21.4C21.5434 23.16 21.1488 24.5733 20.3594 25.64C19.5701 26.696 18.4714 27.224 17.0634 27.224ZM15.3674 24.136C15.7514 24.7547 16.3168 25.064 17.0634 25.064C17.8101 25.064 18.3754 24.7493 18.7594 24.12C19.1541 23.4907 19.3514 22.584 19.3514 21.4C19.3514 20.2053 19.1541 19.2933 18.7594 18.664C18.3754 18.0347 17.8101 17.72 17.0634 17.72C16.3168 17.72 15.7514 18.0347 15.3674 18.664C14.9834 19.2933 14.7914 20.2053 14.7914 21.4C14.7914 22.5947 14.9834 23.5067 15.3674 24.136ZM24.9091 15.8H26.8291V27H24.6211V18.136L22.5091 18.728L21.9651 16.84L24.9091 15.8Z" fill="#045E5E"/>
</svg>
