<svg width="135" height="65" viewBox="0 0 135 65" fill="none" xmlns="http://www.w3.org/2000/svg">
<path d="M71.782 54.428C71.6913 54.428 71.612 54.394 71.544 54.326C71.476 54.258 71.442 54.1787 71.442 54.088C71.442 54.0313 71.459 53.9633 71.493 53.884L77.307 39.944C77.341 39.876 77.3863 39.808 77.443 39.74C77.511 39.672 77.613 39.638 77.749 39.638H78.412C78.5027 39.638 78.582 39.672 78.65 39.74C78.718 39.808 78.752 39.8873 78.752 39.978C78.752 40.0233 78.7407 40.0913 78.718 40.182L72.887 54.122C72.8643 54.1787 72.8133 54.241 72.734 54.309C72.666 54.3883 72.5697 54.428 72.445 54.428H71.782ZM84.8117 53C84.6983 53 84.602 52.966 84.5227 52.898C84.4547 52.8187 84.4207 52.7223 84.4207 52.609V44.551C84.4207 44.4377 84.4547 44.347 84.5227 44.279C84.602 44.1997 84.6983 44.16 84.8117 44.16H85.5767C85.69 44.16 85.7807 44.1997 85.8487 44.279C85.928 44.347 85.9677 44.4377 85.9677 44.551V45.146C86.2283 44.7947 86.557 44.517 86.9537 44.313C87.3503 44.0977 87.8263 43.99 88.3817 43.99C89.6623 43.9787 90.569 44.5 91.1017 45.554C91.3623 45.078 91.742 44.6983 92.2407 44.415C92.7393 44.1317 93.306 43.99 93.9407 43.99C94.53 43.99 95.0627 44.126 95.5387 44.398C96.026 44.67 96.4057 45.0837 96.6777 45.639C96.961 46.183 97.1027 46.8687 97.1027 47.696V52.609C97.1027 52.7223 97.063 52.8187 96.9837 52.898C96.9157 52.966 96.825 53 96.7117 53H95.9127C95.7993 53 95.703 52.966 95.6237 52.898C95.5557 52.8187 95.5217 52.7223 95.5217 52.609V47.849C95.5217 47.2143 95.431 46.7157 95.2497 46.353C95.0683 45.9903 94.8247 45.7353 94.5187 45.588C94.2127 45.4407 93.8783 45.367 93.5157 45.367C93.221 45.367 92.9207 45.4407 92.6147 45.588C92.3087 45.7353 92.0537 45.9903 91.8497 46.353C91.657 46.7157 91.5607 47.2143 91.5607 47.849V52.609C91.5607 52.7223 91.521 52.8187 91.4417 52.898C91.3737 52.966 91.283 53 91.1697 53H90.3707C90.2573 53 90.161 52.966 90.0817 52.898C90.0137 52.8187 89.9797 52.7223 89.9797 52.609V47.849C89.9797 47.2143 89.8833 46.7157 89.6907 46.353C89.498 45.9903 89.2487 45.7353 88.9427 45.588C88.6367 45.4407 88.3137 45.367 87.9737 45.367C87.679 45.367 87.3787 45.4407 87.0727 45.588C86.7667 45.7353 86.5117 45.9903 86.3077 46.353C86.115 46.7157 86.0187 47.2087 86.0187 47.832V52.609C86.0187 52.7223 85.979 52.8187 85.8997 52.898C85.8317 52.966 85.741 53 85.6277 53H84.8117ZM103.055 53.17C102.193 53.17 101.474 53.0057 100.896 52.677C100.318 52.3483 99.8757 51.895 99.5697 51.317C99.2637 50.7277 99.0937 50.059 99.0597 49.311C99.0483 49.1183 99.0427 48.8747 99.0427 48.58C99.0427 48.274 99.0483 48.0303 99.0597 47.849C99.0937 47.0897 99.2637 46.421 99.5697 45.843C99.887 45.265 100.335 44.8117 100.913 44.483C101.491 44.1543 102.205 43.99 103.055 43.99C103.905 43.99 104.619 44.1543 105.197 44.483C105.775 44.8117 106.217 45.265 106.523 45.843C106.84 46.421 107.016 47.0897 107.05 47.849C107.061 48.0303 107.067 48.274 107.067 48.58C107.067 48.8747 107.061 49.1183 107.05 49.311C107.016 50.059 106.846 50.7277 106.54 51.317C106.234 51.895 105.792 52.3483 105.214 52.677C104.636 53.0057 103.916 53.17 103.055 53.17ZM103.055 51.861C103.757 51.861 104.318 51.64 104.738 51.198C105.157 50.7447 105.384 50.0873 105.418 49.226C105.429 49.056 105.435 48.8407 105.435 48.58C105.435 48.3193 105.429 48.104 105.418 47.934C105.384 47.0727 105.157 46.421 104.738 45.979C104.318 45.5257 103.757 45.299 103.055 45.299C102.352 45.299 101.785 45.5257 101.355 45.979C100.935 46.421 100.714 47.0727 100.692 47.934C100.68 48.104 100.675 48.3193 100.675 48.58C100.675 48.8407 100.68 49.056 100.692 49.226C100.714 50.0873 100.935 50.7447 101.355 51.198C101.785 51.64 102.352 51.861 103.055 51.861ZM109.492 53C109.379 53 109.282 52.966 109.203 52.898C109.135 52.8187 109.101 52.7223 109.101 52.609V44.551C109.101 44.4377 109.135 44.347 109.203 44.279C109.282 44.1997 109.379 44.16 109.492 44.16H110.291C110.404 44.16 110.495 44.1997 110.563 44.279C110.642 44.347 110.682 44.4377 110.682 44.551V45.299C110.977 44.9137 111.345 44.602 111.787 44.364C112.24 44.1147 112.818 43.99 113.521 43.99C114.258 43.99 114.881 44.1543 115.391 44.483C115.912 44.8003 116.303 45.248 116.564 45.826C116.825 46.3927 116.955 47.0557 116.955 47.815V52.609C116.955 52.7223 116.921 52.8187 116.853 52.898C116.785 52.966 116.694 53 116.581 53H115.731C115.618 53 115.521 52.966 115.442 52.898C115.374 52.8187 115.34 52.7223 115.34 52.609V47.9C115.34 47.1067 115.147 46.489 114.762 46.047C114.377 45.5937 113.81 45.367 113.062 45.367C112.359 45.367 111.793 45.5937 111.362 46.047C110.943 46.489 110.733 47.1067 110.733 47.9V52.609C110.733 52.7223 110.693 52.8187 110.614 52.898C110.546 52.966 110.455 53 110.342 53H109.492ZM122.651 53C122.016 53 121.501 52.881 121.104 52.643C120.707 52.3937 120.418 52.048 120.237 51.606C120.056 51.1527 119.965 50.62 119.965 50.008V45.52H118.639C118.526 45.52 118.429 45.486 118.35 45.418C118.282 45.3387 118.248 45.2423 118.248 45.129V44.551C118.248 44.4377 118.282 44.347 118.35 44.279C118.429 44.1997 118.526 44.16 118.639 44.16H119.965V41.321C119.965 41.2077 119.999 41.117 120.067 41.049C120.146 40.9697 120.243 40.93 120.356 40.93H121.155C121.268 40.93 121.359 40.9697 121.427 41.049C121.506 41.117 121.546 41.2077 121.546 41.321V44.16H123.654C123.767 44.16 123.858 44.1997 123.926 44.279C124.005 44.347 124.045 44.4377 124.045 44.551V45.129C124.045 45.2423 124.005 45.3387 123.926 45.418C123.858 45.486 123.767 45.52 123.654 45.52H121.546V49.889C121.546 50.4217 121.637 50.841 121.818 51.147C121.999 51.453 122.322 51.606 122.787 51.606H123.824C123.937 51.606 124.028 51.6457 124.096 51.725C124.175 51.793 124.215 51.8837 124.215 51.997V52.609C124.215 52.7223 124.175 52.8187 124.096 52.898C124.028 52.966 123.937 53 123.824 53H122.651ZM126.154 53C126.041 53 125.944 52.966 125.865 52.898C125.797 52.8187 125.763 52.7223 125.763 52.609V41.321C125.763 41.2077 125.797 41.117 125.865 41.049C125.944 40.9697 126.041 40.93 126.154 40.93H127.004C127.129 40.93 127.225 40.9697 127.293 41.049C127.361 41.117 127.395 41.2077 127.395 41.321V45.282C127.701 44.8967 128.075 44.585 128.517 44.347C128.959 44.109 129.52 43.99 130.2 43.99C130.937 43.99 131.56 44.1543 132.07 44.483C132.591 44.8003 132.982 45.248 133.243 45.826C133.515 46.3927 133.651 47.0557 133.651 47.815V52.609C133.651 52.7223 133.617 52.8187 133.549 52.898C133.481 52.966 133.385 53 133.26 53H132.41C132.297 53 132.2 52.966 132.121 52.898C132.053 52.8187 132.019 52.7223 132.019 52.609V47.9C132.019 47.1067 131.826 46.489 131.441 46.047C131.056 45.5937 130.489 45.367 129.741 45.367C129.038 45.367 128.472 45.5937 128.041 46.047C127.61 46.489 127.395 47.1067 127.395 47.9V52.609C127.395 52.7223 127.361 52.8187 127.293 52.898C127.225 52.966 127.129 53 127.004 53H126.154Z" fill="white"/>
<path d="M12.576 44.296C12.576 45.704 12.128 46.848 11.232 47.728C10.336 48.592 9.168 49.112 7.728 49.288V51.4H6.12V49.312C4.776 49.216 3.624 48.84 2.664 48.184C1.704 47.528 1.016 46.64 0.6 45.52L3.456 43.864C3.968 45.144 4.856 45.872 6.12 46.048V41.896C6.104 41.896 6.096 41.896 6.096 41.896L6.048 41.872C5.488 41.664 5.032 41.48 4.68 41.32C4.328 41.16 3.912 40.928 3.432 40.624C2.968 40.32 2.6 40.008 2.328 39.688C2.072 39.352 1.84 38.928 1.632 38.416C1.44 37.904 1.344 37.344 1.344 36.736C1.344 35.328 1.8 34.2 2.712 33.352C3.64 32.504 4.776 32.016 6.12 31.888V29.8H7.728V31.936C9.904 32.192 11.44 33.32 12.336 35.32L9.552 36.952C9.168 35.992 8.56 35.408 7.728 35.2V39.208C9.216 39.8 10.216 40.272 10.728 40.624C11.96 41.504 12.576 42.728 12.576 44.296ZM4.632 36.76C4.632 37.112 4.744 37.424 4.968 37.696C5.192 37.952 5.576 38.216 6.12 38.488V35.128C5.64 35.224 5.272 35.416 5.016 35.704C4.76 35.992 4.632 36.344 4.632 36.76ZM7.728 46C8.752 45.776 9.264 45.216 9.264 44.32C9.264 43.92 9.136 43.584 8.88 43.312C8.64 43.04 8.256 42.784 7.728 42.544V46ZM24.0719 7H31.2719V49H22.9919V15.76L15.0719 17.98L13.0319 10.9L24.0719 7ZM65.375 20.74C65.375 23.98 64.535 26.82 62.855 29.26H62.915L49.835 49H40.355L49.715 35.32C45.355 35.24 41.795 33.86 39.035 31.18C36.315 28.46 34.955 24.98 34.955 20.74C34.955 16.46 36.355 12.96 39.155 10.24C41.995 7.52 45.655 6.16 50.135 6.16C54.655 6.16 58.315 7.52 61.115 10.24C63.955 12.92 65.375 16.42 65.375 20.74ZM43.175 20.74C43.175 22.82 43.835 24.48 45.155 25.72C46.515 26.96 48.175 27.58 50.135 27.58C52.175 27.58 53.855 26.96 55.175 25.72C56.495 24.48 57.155 22.82 57.155 20.74C57.155 18.66 56.495 17.02 55.175 15.82C53.855 14.58 52.175 13.96 50.135 13.96C48.175 13.96 46.515 14.58 45.155 15.82C43.835 17.06 43.175 18.7 43.175 20.74Z" fill="white"/>
</svg>
