<svg width="94" height="94" viewBox="0 0 94 94" fill="none" xmlns="http://www.w3.org/2000/svg">
<circle cx="47" cy="47" r="47" fill="#7BBDBC" fill-opacity="0.15"/>
<path opacity="0.4" d="M56.2177 39.9497C56.101 39.933 55.9844 39.933 55.8677 39.9497C53.2844 39.8663 51.2344 37.7497 51.2344 35.1497C51.2344 32.4997 53.3844 30.333 56.051 30.333C58.701 30.333 60.8677 32.483 60.8677 35.1497C60.851 37.7497 58.801 39.8663 56.2177 39.9497Z" fill="#045E5E"/>
<path opacity="0.4" d="M61.6513 51.4997C59.7846 52.7497 57.168 53.2163 54.7513 52.8997C55.3846 51.533 55.718 50.0164 55.7346 48.4164C55.7346 46.7497 55.368 45.1664 54.668 43.783C57.1346 43.4497 59.7513 43.9163 61.6346 45.1663C64.268 46.8997 64.268 49.7497 61.6513 51.4997Z" fill="#045E5E"/>
<path opacity="0.4" d="M37.732 39.9497C37.8487 39.933 37.9654 39.933 38.082 39.9497C40.6654 39.8663 42.7154 37.7497 42.7154 35.1497C42.7154 32.4997 40.5654 30.333 37.8987 30.333C35.2487 30.333 33.082 32.483 33.082 35.1497C33.0987 37.7497 35.1487 39.8663 37.732 39.9497Z" fill="#045E5E"/>
<path opacity="0.4" d="M37.9159 48.4167C37.9159 50.0333 38.2659 51.5667 38.8992 52.95C36.5492 53.2 34.0992 52.7 32.2992 51.5167C29.6659 49.7667 29.6659 46.9167 32.2992 45.1667C34.0826 43.9667 36.5992 43.4833 38.9659 43.75C38.2826 45.15 37.9159 46.7334 37.9159 48.4167Z" fill="#045E5E"/>
<path d="M47.2 53.45C47.0667 53.4333 46.9167 53.4333 46.7667 53.45C43.7 53.35 41.25 50.8333 41.25 47.7333C41.25 44.5667 43.8 42 46.9833 42C50.15 42 52.7167 44.5667 52.7167 47.7333C52.7167 50.8333 50.2833 53.35 47.2 53.45Z" fill="#045E5E"/>
<path d="M41.782 56.9004C39.2654 58.5837 39.2654 61.3504 41.782 63.0171C44.6487 64.9337 49.3487 64.9337 52.2154 63.0171C54.732 61.3337 54.732 58.5671 52.2154 56.9004C49.3654 54.9837 44.6654 54.9837 41.782 56.9004Z" fill="#045E5E"/>
</svg>
