<svg width="1369" height="43" viewBox="0 0 1369 43" fill="none" xmlns="http://www.w3.org/2000/svg">
<g clip-path="url(#clip0_150_4111)">
<path d="M86.3899 31.4018C77.2369 35.2742 67.2391 37.1752 58.1565 37.1752C44.7087 37.1752 31.6834 33.514 21.1222 27.3886C20.2069 26.8253 19.5029 27.811 20.2774 28.5151C30.064 37.316 42.9485 42.5966 57.2412 42.5966C67.4503 42.5966 79.3491 39.3578 87.5164 33.3732C88.9246 32.2467 87.798 30.7681 86.3899 31.4018Z" fill="#D1D5DB"/>
<path d="M81.2496 27.9517C80.5455 28.4445 80.6159 29.1486 81.4608 29.0782C84.0659 28.7966 89.9801 28.0925 91.0362 29.4302C92.0923 30.768 89.8393 36.3302 88.8536 38.7944C88.5719 39.5689 89.2056 39.8505 89.8393 39.2873C94.2045 35.6261 95.4014 27.8813 94.4862 26.8252C93.6413 25.6282 85.8965 24.6425 81.2496 27.9517Z" fill="#D1D5DB"/>
<path d="M97.3034 18.658C94.7687 17.2498 91.882 16.8274 89.1361 16.8978L96.5993 6.26629C97.3034 5.28058 97.6554 4.71732 97.6554 4.22447V1.47858C97.6554 0.985731 97.3034 0.704102 96.8105 0.704102H82.4474C82.025 0.704102 81.6729 1.05614 81.6729 1.47858V4.64692C81.6729 5.13977 82.025 5.4214 82.5178 5.4214H89.981L81.3913 17.7427C80.8984 18.5172 80.8984 19.4325 80.8984 19.9253V23.1641C80.8984 23.6569 81.3913 24.1498 81.8841 23.8681C86.7423 21.2631 92.5861 21.5447 97.0217 23.8681C97.585 24.1498 98.0778 23.5865 98.0778 23.1641V19.7141C98.0074 19.4325 97.8666 18.9396 97.3034 18.658Z" fill="#D1D5DB"/>
<path d="M24.9933 24.7126H29.3586C29.8514 24.7126 30.2035 24.3606 30.2035 23.9381V12.0393C30.2035 9.43421 30.0627 5.84343 33.231 5.84343C36.3289 5.84343 35.9065 9.50462 35.9065 12.0393V23.9381C35.9065 24.3606 36.2585 24.7126 36.681 24.7126H41.0462C41.5391 24.7126 41.8911 24.3606 41.8911 23.9381V12.0393C41.8911 10.772 41.8207 8.87095 42.3135 7.74443C42.736 6.61792 43.8625 5.91384 44.9186 5.91384C46.1859 5.91384 47.1717 6.33629 47.4533 7.81484C47.6645 8.73014 47.5941 11.0536 47.5941 12.0393V23.9381C47.5941 24.3606 47.9461 24.7126 48.3686 24.7126H52.7338C53.2267 24.7126 53.5787 24.3606 53.5787 23.9381V9.78625C53.5787 7.3924 53.8604 4.64651 52.4522 2.74551C51.2553 1.05573 49.2135 0.28125 47.3829 0.28125C44.7778 0.28125 42.3839 1.61899 41.3278 4.43529C40.1309 1.61899 38.3707 0.28125 35.6952 0.28125C33.0198 0.28125 31.0484 1.61899 29.9218 4.43529H29.8514V1.47818C29.8514 1.05573 29.4994 0.774102 29.077 0.703694H24.9933C24.5005 0.703694 24.1484 1.05573 24.1484 1.47818V23.9381C24.2188 24.3606 24.5709 24.6422 24.9933 24.7126Z" fill="#D1D5DB"/>
<path d="M109.974 0.28125C103.637 0.28125 100.188 5.70262 100.188 12.6729C100.188 19.5729 103.637 25.1351 109.974 25.1351C116.1 25.1351 119.972 19.7137 119.972 12.8842C119.902 5.84343 116.452 0.28125 109.974 0.28125ZM109.974 20.5586C106.524 20.5586 106.595 14.7148 106.595 11.9689C106.595 9.22299 106.806 4.85773 110.045 4.85773C111.453 4.85773 112.438 5.4914 112.931 7.04036C113.494 8.80054 113.565 11.124 113.565 12.9546C113.494 15.8413 113.354 20.5586 109.974 20.5586Z" fill="#D1D5DB"/>
<path d="M134.899 0.28125C131.871 0.28125 130.181 1.75981 128.984 4.78732H128.844V1.40777C128.773 1.05573 128.421 0.774102 128.069 0.774102H124.056C123.633 0.774102 123.281 1.12614 123.211 1.47818V23.8677C123.211 24.2902 123.563 24.6422 123.985 24.6422H128.351C128.844 24.6422 129.196 24.2902 129.196 23.8677V11.8281C129.196 10.3495 129.266 8.94136 129.9 7.60362C130.392 6.54751 131.378 5.84343 132.434 5.84343C135.462 5.84343 135.18 9.43421 135.18 11.8985V24.0789C135.251 24.431 135.532 24.783 135.955 24.783H140.32C140.742 24.783 141.094 24.5014 141.165 24.0789V9.99747C141.165 7.81484 141.165 4.78732 140.038 3.02714C138.701 0.985324 136.8 0.28125 134.899 0.28125Z" fill="#D1D5DB"/>
<path d="M70.193 9.57521C67.6584 9.85684 64.3492 10.0681 62.0258 11.1242C59.2799 12.3211 57.3789 14.715 57.3789 18.2353C57.3789 22.7414 60.2656 25.0648 63.9268 25.0648C67.0247 25.0648 68.7145 24.3608 71.1083 21.8965C71.8828 23.023 72.1645 23.5863 73.643 24.7832C73.995 24.924 74.4175 24.924 74.6991 24.7128C75.544 23.9383 77.1634 22.5302 78.0083 21.8261C78.3603 21.5445 78.2899 21.0516 78.0083 20.6996C77.2338 19.5731 76.3889 18.7282 76.3889 16.6864V9.85684C76.3889 6.97014 76.6001 4.36507 74.4879 2.32325C72.7981 0.703884 70.0522 0.140625 67.94 0.140625C63.786 0.140625 59.1391 1.68959 58.1534 6.82933C58.083 7.39259 58.435 7.67422 58.7871 7.74462L63.0115 8.16707C63.4339 8.16707 63.7156 7.74462 63.786 7.39259C64.138 5.6324 65.6166 4.78751 67.3063 4.78751C68.2216 4.78751 69.2073 5.13955 69.7706 5.91403C70.4043 6.82933 70.3339 8.02625 70.3339 9.08236L70.193 9.57521ZM69.4186 18.6578C68.7145 19.8547 67.588 20.6292 66.3911 20.6292C64.7013 20.6292 63.7156 19.3618 63.7156 17.4608C63.7156 13.7292 67.0247 13.0956 70.193 13.0956V14.0109C70.193 15.7007 70.2635 17.1088 69.4186 18.6578Z" fill="#D1D5DB"/>
<path d="M20.77 20.559C19.9955 19.4324 19.1506 18.5876 19.1506 16.5457V9.71622C19.1506 6.82952 19.3618 4.22444 17.2496 2.18263C15.5598 0.563259 12.814 0 10.7017 0C6.5477 0 1.90081 1.54896 0.915106 6.6887C0.844699 7.25196 1.19674 7.53359 1.54877 7.604L5.77322 8.02644C6.19566 8.02644 6.47729 7.604 6.5477 7.25196C6.89973 5.49178 8.37829 4.64689 10.0681 4.64689C10.9834 4.64689 11.9691 4.99892 12.5323 5.77341C13.166 6.6887 13.0252 7.88563 13.0252 8.94174V9.505C10.4905 9.78663 7.18136 9.99785 4.85792 11.054C2.11203 12.2509 0.140625 14.6447 0.140625 18.2355C0.140625 22.7416 3.02733 25.065 6.68851 25.065C9.78644 25.065 11.4762 24.361 13.8701 21.8967C14.6445 23.0232 14.9262 23.5865 16.4047 24.7834C16.7568 24.9242 17.1792 24.9242 17.4608 24.713C18.3057 23.9385 19.9251 22.5304 20.77 21.8263C21.122 21.4743 21.0516 20.9814 20.77 20.559ZM12.1803 18.658C11.4762 19.8549 10.4201 20.6294 9.15277 20.6294C7.46299 20.6294 6.47729 19.362 6.47729 17.461C6.47729 13.7294 9.78644 13.0958 12.9548 13.0958V14.0111C13.0252 15.7008 13.0956 17.109 12.1803 18.658Z" fill="#D1D5DB"/>
</g>
<g clip-path="url(#clip1_150_4111)">
<path d="M235.086 15.0968H219.859V19.5869H230.661C230.141 25.899 224.87 28.6321 219.859 28.6321C213.482 28.6321 207.951 23.6215 207.951 16.5935C208.016 9.7608 213.287 4.55492 219.924 4.55492C225.065 4.55492 228.059 7.8086 228.059 7.8086L231.247 4.55492C231.247 4.55492 227.213 0.0648504 219.794 0.0648504C210.293 -0.000223081 203.07 7.93874 203.07 16.5284C203.07 24.9229 209.903 33.1222 219.989 33.1222C228.839 33.1222 235.347 27.0703 235.347 18.0902C235.347 16.2031 235.086 15.0968 235.086 15.0968Z" fill="#D1D5DB"/>
<path d="M247.514 11.8428C241.267 11.8428 236.777 16.7233 236.777 22.3847C236.777 28.1762 241.137 33.1218 247.58 33.1218C253.436 33.1218 258.187 28.6317 258.187 22.5148C258.187 15.4218 252.655 11.8428 247.514 11.8428ZM247.58 16.0075C250.638 16.0075 253.566 18.4803 253.566 22.4498C253.566 26.3542 250.703 28.892 247.58 28.892C244.196 28.892 241.528 26.1589 241.528 22.3847C241.463 18.7406 244.131 16.0075 247.58 16.0075Z" fill="#D1D5DB"/>
<path d="M270.811 11.8428C264.564 11.8428 260.074 16.7233 260.074 22.3847C260.074 28.1762 264.434 33.1218 270.876 33.1218C276.733 33.1218 281.483 28.6317 281.483 22.5148C281.483 15.4218 275.952 11.8428 270.811 11.8428ZM270.876 16.0075C273.935 16.0075 276.863 18.4803 276.863 22.4498C276.863 26.3542 274 28.892 270.876 28.892C267.493 28.892 264.825 26.1589 264.825 22.3847C264.76 18.7406 267.428 16.0075 270.876 16.0075Z" fill="#D1D5DB"/>
<path d="M293.65 11.8428C287.924 11.8428 283.434 16.8534 283.434 22.5148C283.434 28.892 288.639 33.1869 293.585 33.1869C296.644 33.1869 298.205 31.9505 299.442 30.5839V32.6663C299.442 36.3104 297.229 38.5229 293.845 38.5229C290.592 38.5229 288.965 36.1152 288.379 34.7486L284.214 36.4405C285.646 39.499 288.574 42.6876 293.78 42.6876C299.442 42.6876 303.802 39.1086 303.802 31.56V12.4935H299.312V14.3156C298.01 12.8189 296.123 11.8428 293.65 11.8428ZM294.041 16.0075C296.839 16.0075 299.702 18.4152 299.702 22.5148C299.702 26.6795 296.839 28.9571 293.976 28.9571C290.917 28.9571 288.054 26.4843 288.054 22.5148C288.119 18.4152 291.047 16.0075 294.041 16.0075Z" fill="#D1D5DB"/>
<path d="M323.718 11.7783C318.317 11.7783 313.762 16.0732 313.762 22.3853C313.762 29.0879 318.837 33.0573 324.239 33.0573C328.729 33.0573 331.527 30.5846 333.154 28.3721L329.444 25.8993C328.468 27.396 326.907 28.8276 324.239 28.8276C321.245 28.8276 319.879 27.2007 319.033 25.5739L333.284 19.6522L332.568 17.8952C331.136 14.6416 327.948 11.7783 323.718 11.7783ZM323.848 15.8779C325.8 15.8779 327.167 16.9191 327.818 18.1555L318.252 22.125C317.861 19.0666 320.79 15.8779 323.848 15.8779Z" fill="#D1D5DB"/>
<path d="M306.926 32.4709H311.611V1.10547H306.926V32.4709Z" fill="#D1D5DB"/>
</g>
<g clip-path="url(#clip2_150_4111)">
<path d="M534.007 12.5409C532.633 10.9947 530.313 10.1357 527.135 10.1357H517.687C516.999 10.1357 516.484 10.5652 516.398 11.2524L512.533 35.5613C512.447 36.0766 512.79 36.5061 513.306 36.5061H518.202C518.631 36.5061 519.061 36.1625 519.147 35.7331L520.263 28.8613C520.349 28.26 520.951 27.7446 521.552 27.7446H524.558C530.829 27.7446 534.436 24.7382 535.381 18.7254C535.639 16.0626 535.209 14.0011 534.007 12.5409ZM528.252 18.9831C527.736 22.419 525.16 22.419 522.583 22.419H521.122L522.153 16.0626C522.239 15.719 522.583 15.3755 522.926 15.3755H523.613C525.331 15.3755 526.963 15.3755 527.736 16.3203C528.252 16.9216 528.424 17.7806 528.252 18.9831Z" fill="#D1D5DB"/>
<path d="M555.48 18.8973H550.928C550.498 18.8973 550.241 19.155 550.155 19.5845L549.983 20.8729L549.639 20.4434C548.695 18.9832 546.461 18.5537 544.314 18.5537C539.332 18.5537 535.037 22.3332 534.178 27.6588C533.748 30.3216 534.35 32.8985 535.896 34.6165C537.27 36.2485 539.246 36.9357 541.651 36.9357C545.688 36.9357 547.921 34.3588 547.921 34.3588L547.75 35.6472C547.664 36.1626 548.007 36.5921 548.523 36.5921H552.646C553.333 36.5921 553.848 36.0767 553.934 35.4754L556.425 19.9281C556.339 19.3268 555.91 18.8973 555.48 18.8973ZM549.124 27.7447C548.695 30.3216 546.633 32.0395 543.97 32.0395C542.682 32.0395 541.565 31.6101 540.964 30.837C540.277 30.0639 540.019 28.9472 540.277 27.6588C540.706 25.0819 542.768 23.278 545.345 23.278C546.633 23.278 547.664 23.7075 548.351 24.4806C549.038 25.3396 549.296 26.4562 549.124 27.7447Z" fill="#D1D5DB"/>
<path d="M565.962 10.1357H561.581C561.152 10.1357 560.894 10.3934 560.808 10.8229L556.943 35.5613C556.857 36.0766 557.201 36.5061 557.716 36.5061H561.667C562.354 36.5061 562.87 36.0766 562.956 35.3895L566.821 11.0806C566.821 10.5652 566.477 10.1357 565.962 10.1357Z" fill="#D1D5DB"/>
<path d="M466.405 12.5409C465.031 10.9947 462.626 10.1357 459.534 10.1357H449.999C449.312 10.1357 448.796 10.5652 448.711 11.2524L444.845 35.5613C444.759 36.0766 445.103 36.5061 445.618 36.5061H450.171C450.858 36.5061 451.373 36.0766 451.459 35.3895L452.49 28.8613C452.576 28.26 453.177 27.7446 453.778 27.7446H456.871C463.141 27.7446 466.749 24.7382 467.694 18.7254C468.037 16.0626 467.608 14.0011 466.405 12.5409ZM460.564 18.9831C460.049 22.419 457.472 22.419 454.895 22.419H453.435L454.466 16.0626C454.552 15.719 454.895 15.3755 455.239 15.3755H456.012C457.73 15.3755 459.362 15.3755 460.135 16.3203C460.65 16.9216 460.822 17.7806 460.564 18.9831Z" fill="#D1D5DB"/>
<path d="M487.793 18.8973H483.24C482.811 18.8973 482.553 19.155 482.467 19.5845L482.296 20.8729L481.952 20.4434C481.007 18.9832 478.774 18.5537 476.626 18.5537C471.644 18.5537 467.349 22.3332 466.49 27.6588C466.061 30.3216 466.662 32.8985 468.208 34.6165C469.583 36.2485 471.558 36.9357 473.964 36.9357C478.001 36.9357 480.234 34.3588 480.234 34.3588L480.062 35.6472C479.976 36.1626 480.32 36.5921 480.835 36.5921H484.958C485.646 36.5921 486.161 36.0767 486.247 35.4754L488.652 19.7563C488.652 19.3268 488.308 18.8973 487.793 18.8973ZM481.522 27.7447C481.093 30.3216 479.031 32.0395 476.369 32.0395C475.08 32.0395 473.964 31.6101 473.362 30.837C472.675 30.0639 472.417 28.9472 472.675 27.6588C473.105 25.0819 475.166 23.278 477.743 23.278C479.031 23.278 480.062 23.7075 480.749 24.4806C481.437 25.3396 481.694 26.4562 481.522 27.7447Z" fill="#D1D5DB"/>
<path d="M512.017 18.8975H507.464C507.035 18.8975 506.605 19.1552 506.348 19.4987L500.077 28.7756L497.414 19.8423C497.243 19.3269 496.727 18.8975 496.126 18.8975H491.659C491.144 18.8975 490.714 19.4128 490.886 19.9282L495.868 34.7025L491.144 41.4025C490.8 41.9179 491.144 42.6909 491.831 42.6909H496.384C496.813 42.6909 497.243 42.5191 497.5 42.0897L512.704 20.1859C513.048 19.5846 512.618 18.8975 512.017 18.8975Z" fill="#D1D5DB"/>
<path d="M429.214 12.7991C428.699 12.1978 428.097 11.7684 427.324 11.3389C427.324 11.5966 427.238 11.8542 427.152 12.1119C427.067 12.3696 427.067 12.6273 426.981 12.7991C425.434 20.1004 420.796 23.1927 414.783 23.8798C414.354 23.9657 414.01 23.9657 413.581 23.9657C413.151 23.9657 412.636 23.9657 412.206 23.9657H408.427C407.482 23.9657 406.709 24.6529 406.623 25.5119L404.905 36.5067L404.647 37.881L404.132 41.4028C404.046 42.0041 404.476 42.5195 405.077 42.5195H411.863C412.636 42.5195 413.323 41.9182 413.495 41.1451L413.581 40.8015L414.869 32.7272L414.955 32.2977C415.041 31.5247 415.728 30.9234 416.587 30.9234H417.618C423.974 30.9234 429.128 28.3465 430.588 20.6157C431.19 17.3517 430.932 14.6889 429.214 12.7991Z" fill="#D1D5DB"/>
<path d="M406.535 25.5976L406.621 25.1681L408.769 11.4246C408.855 10.9092 409.198 10.3939 409.714 10.2221C409.885 10.1362 410.143 10.0503 410.401 10.0503H420.622C421.825 10.0503 422.942 10.1362 423.972 10.308C424.23 10.3939 424.574 10.3939 424.831 10.4798C425.089 10.5657 425.347 10.6516 425.605 10.6516C425.69 10.6516 425.776 10.7375 425.862 10.7375H425.948C425.948 10.7375 425.948 10.7375 426.034 10.7375C426.549 10.9092 426.979 11.081 427.408 11.3387C427.924 8.07464 427.408 5.84132 425.605 3.86569C423.629 1.63237 420.193 0.6875 415.726 0.6875H402.67C401.725 0.6875 400.952 1.37468 400.866 2.23365L395.455 36.5924C395.369 37.2796 395.884 37.8809 396.571 37.8809H404.56L404.817 36.5066L406.535 25.5976Z" fill="#D1D5DB"/>
<path d="M427.408 11.3383C426.979 11.0806 426.549 10.9088 426.034 10.737C426.034 10.737 426.034 10.737 425.948 10.737H425.862C425.776 10.737 425.69 10.6511 425.604 10.6511C425.347 10.5652 425.089 10.4793 424.831 10.4793C424.574 10.3934 424.23 10.3934 423.972 10.3075C422.941 10.1357 421.825 10.0498 420.622 10.0498H410.401C410.143 10.0498 409.885 10.1357 409.713 10.2216C409.284 10.4793 408.854 10.9088 408.768 11.4242L406.621 25.1677L406.535 25.5972C406.707 24.6523 407.48 24.051 408.339 24.051H412.204C412.634 24.051 413.149 24.051 413.579 24.051C414.008 24.051 414.438 23.9651 414.781 23.9651C420.794 23.192 425.432 20.0998 427.065 12.8844C427.15 12.6267 427.15 12.4549 427.236 12.1972C427.322 11.8536 427.322 11.596 427.408 11.3383C427.408 11.4242 427.408 11.4242 427.408 11.3383Z" fill="#D1D5DB"/>
</g>
<g clip-path="url(#clip3_150_4111)">
<path d="M649.368 0.140625C637.681 0.140625 628.176 9.57522 628.176 21.2628C628.176 32.9505 637.681 42.4555 649.368 42.4555C661.056 42.4555 670.561 32.9505 670.561 21.2628C670.491 9.57522 661.056 0.140625 649.368 0.140625ZM659.014 30.627C658.662 31.2607 657.817 31.4719 657.184 31.0495C652.185 28.0219 645.989 27.3179 638.596 29.0077C637.892 29.1485 637.188 28.726 637.047 28.022C636.906 27.3179 637.329 26.6138 638.033 26.473C646.13 24.6424 653.03 25.4169 658.592 28.8668C659.225 29.2189 659.437 29.9934 659.014 30.627ZM661.619 24.8536C661.126 25.6281 660.141 25.9097 659.366 25.4169C653.663 21.8965 645.003 20.9108 638.314 22.9526C637.47 23.2342 636.554 22.7414 636.273 21.8261C635.991 20.9812 636.484 20.0659 637.399 19.7843C645.074 17.4608 654.649 18.5874 661.197 22.6006C661.831 23.0934 662.112 24.0791 661.619 24.8536ZM661.831 18.869C655.001 14.7854 643.736 14.4333 637.258 16.4047C636.202 16.7568 635.076 16.1231 634.794 15.067C634.512 14.0813 635.076 12.9548 636.132 12.6731C643.595 10.4201 656.057 10.8425 663.872 15.4894C664.788 16.0527 665.14 17.2496 664.576 18.2353C664.013 19.1506 662.816 19.4322 661.831 18.869ZM685.769 19.6435C682.108 18.7986 681.474 18.1649 681.474 16.8976C681.474 15.7007 682.601 14.8558 684.29 14.8558C685.91 14.8558 687.6 15.4894 689.289 16.7568C689.36 16.8272 689.43 16.8272 689.501 16.8272C689.571 16.8272 689.641 16.7568 689.641 16.7568L691.402 14.2221C691.472 14.1517 691.472 14.0109 691.331 13.8701C689.289 12.2507 686.966 11.4058 684.29 11.4058C680.348 11.4058 677.602 13.7997 677.602 17.1792C677.602 20.8404 679.996 22.1077 684.079 23.0934C687.6 23.8679 688.163 24.572 688.163 25.7689C688.163 27.1067 686.966 27.9515 685.065 27.9515C682.953 27.9515 681.193 27.2475 679.221 25.5577C679.151 25.4873 679.08 25.4873 679.08 25.4873C679.01 25.4873 678.939 25.5577 678.939 25.5577L676.968 27.9515C676.898 28.022 676.898 28.2332 676.968 28.3036C679.221 30.3454 682.037 31.4015 684.995 31.4015C689.219 31.4015 691.965 29.0781 691.965 25.4873C692.035 22.4598 690.205 20.77 685.769 19.6435ZM701.611 16.0527C699.78 16.0527 698.231 16.7568 697.034 18.2353V16.5455C697.034 16.4047 696.893 16.3343 696.823 16.3343H693.584C693.443 16.3343 693.373 16.4751 693.373 16.5455V35.2035C693.373 35.3443 693.514 35.4147 693.584 35.4147H696.823C696.964 35.4147 697.034 35.2739 697.034 35.2035V29.3597C698.302 30.7678 699.78 31.4719 701.611 31.4719C705.061 31.4719 708.511 28.8668 708.511 23.7975C708.511 18.7282 705.061 16.0527 701.611 16.0527ZM704.709 23.7271C704.709 26.2618 703.16 28.0924 700.836 28.0924C698.583 28.0924 696.893 26.1914 696.893 23.7271C696.893 21.2628 698.583 19.3618 700.836 19.3618C703.089 19.3618 704.709 21.1924 704.709 23.7271ZM717.382 16.0527C712.946 16.0527 709.496 19.4322 709.496 23.7975C709.496 28.0924 712.946 31.4719 717.312 31.4719C721.747 31.4719 725.197 28.0924 725.197 23.7975C725.268 19.4322 721.818 16.0527 717.382 16.0527ZM717.382 28.0924C715.058 28.0924 713.298 26.1914 713.298 23.7271C713.298 21.1924 714.988 19.4322 717.382 19.4322C719.776 19.4322 721.536 21.3332 721.536 23.7975C721.466 26.3322 719.776 28.0924 717.382 28.0924ZM734.632 16.3343H731.041V12.6731C731.041 12.5323 730.9 12.4619 730.83 12.4619H727.591C727.45 12.4619 727.38 12.6027 727.38 12.6731V16.3343H725.831C725.69 16.3343 725.62 16.4751 725.62 16.5455V19.3618C725.62 19.5027 725.76 19.5731 725.831 19.5731H727.38V26.825C727.38 29.7821 728.858 31.2607 731.745 31.2607C732.942 31.2607 733.857 31.0495 734.773 30.4862C734.843 30.4158 734.913 30.3454 734.913 30.275V27.5995C734.913 27.5291 734.843 27.4587 734.773 27.3883C734.702 27.3179 734.632 27.3179 734.561 27.3883C733.928 27.6699 733.294 27.8811 732.66 27.8811C731.604 27.8811 731.111 27.3883 731.111 26.3322V19.5731H734.702C734.843 19.5731 734.913 19.4322 734.913 19.3618V16.5455C734.913 16.4751 734.773 16.3343 734.632 16.3343ZM747.164 16.4047V15.9823C747.164 14.6445 747.657 14.0813 748.784 14.0813C749.488 14.0813 749.981 14.2221 750.614 14.4333C750.685 14.4333 750.755 14.4333 750.825 14.4333C750.896 14.3629 750.896 14.2925 750.896 14.2221V11.4762C750.896 11.4058 750.825 11.265 750.755 11.265C750.121 11.0538 749.276 10.8425 748.009 10.8425C744.982 10.8425 743.362 12.5323 743.362 15.7711V16.4751H741.813C741.672 16.4751 741.602 16.616 741.602 16.6864V19.5027C741.602 19.6435 741.743 19.7139 741.813 19.7139H743.362V30.9087C743.362 31.0495 743.503 31.1199 743.573 31.1199H746.812C746.953 31.1199 747.023 30.9791 747.023 30.9087V19.6435H750.051L754.698 30.8382C754.135 32.0352 753.642 32.2464 752.938 32.2464C752.374 32.2464 751.741 32.1056 751.107 31.7535C751.037 31.7535 750.966 31.6831 750.896 31.7535C750.825 31.7535 750.755 31.8239 750.755 31.8944L749.628 34.3586C749.558 34.4994 749.629 34.6402 749.699 34.6402C750.825 35.2739 751.882 35.5555 753.219 35.5555C755.613 35.5555 756.951 34.429 758.148 31.4015L763.851 16.7568C763.851 16.6864 763.851 16.616 763.851 16.5455C763.78 16.4751 763.71 16.4751 763.64 16.4751H760.542C760.471 16.4751 760.33 16.5455 760.33 16.616L756.81 26.6138L753.008 16.616C752.938 16.5455 752.867 16.4751 752.797 16.4751L747.164 16.4047ZM739.912 16.3343H736.674C736.533 16.3343 736.462 16.4751 736.462 16.5455V30.8382C736.462 30.9791 736.603 31.0495 736.674 31.0495H739.912C740.053 31.0495 740.124 30.9087 740.124 30.8382V16.616C740.194 16.4751 740.053 16.3343 739.912 16.3343ZM738.293 9.85685C737.026 9.85685 735.969 10.913 735.969 12.1803C735.969 13.4476 737.026 14.5037 738.293 14.5037C739.56 14.5037 740.616 13.4476 740.616 12.1803C740.616 10.913 739.631 9.85685 738.293 9.85685ZM766.949 20.9812C765.681 20.9812 764.625 19.9251 764.625 18.6578C764.625 17.3904 765.611 16.3343 766.949 16.3343C768.286 16.3343 769.272 17.3904 769.272 18.6578C769.272 19.9251 768.286 20.9812 766.949 20.9812ZM766.949 16.5455C765.752 16.5455 764.907 17.4608 764.907 18.6578C764.907 19.7843 765.822 20.6996 766.949 20.6996C768.146 20.6996 768.991 19.7843 768.991 18.5874C769.061 17.4608 768.146 16.5455 766.949 16.5455ZM767.512 18.869L768.146 19.7843H767.582L767.019 18.9394H766.526V19.7843H766.033V17.3904H767.09C767.653 17.3904 768.005 17.6721 768.005 18.1649C768.075 18.517 767.794 18.7986 767.512 18.869ZM767.09 17.8129H766.456V18.5874H767.09C767.371 18.5874 767.582 18.4465 767.582 18.2353C767.582 17.8833 767.371 17.8129 767.09 17.8129Z" fill="#D1D5DB"/>
</g>
<g clip-path="url(#clip4_150_4111)">
<path d="M857.709 4.29468C857.117 2.3694 855.043 1.33271 853.118 1.9251C851.193 2.5175 850.156 4.59087 850.748 6.51615L860.227 35.6915C860.893 37.4687 862.818 38.5054 864.67 37.987C866.595 37.3946 867.78 35.3953 867.187 33.47C867.187 33.396 857.709 4.29468 857.709 4.29468Z" fill="#D1D5DB"/>
<path d="M843.049 9.10815C842.456 7.18287 840.383 6.14619 838.458 6.73858C836.532 7.33097 835.496 9.40435 836.088 11.3296L845.566 40.505C846.233 42.2822 848.158 43.3189 850.009 42.8005C851.935 42.2081 853.119 40.2088 852.527 38.2835C852.527 38.2095 843.049 9.10815 843.049 9.10815Z" fill="#D1D5DB"/>
<path d="M869.705 28.5088C871.63 27.9164 872.667 25.843 872.074 23.9177C871.482 21.9924 869.409 20.9558 867.483 21.5481L838.234 30.9524C836.457 31.6188 835.42 33.5441 835.938 35.3953C836.531 37.3206 838.53 38.5054 840.455 37.913C840.603 37.913 869.705 28.5088 869.705 28.5088Z" fill="#D1D5DB"/>
<path d="M844.307 36.7288C846.233 36.1364 848.676 35.3219 851.268 34.4333C850.675 32.508 849.861 30.0644 848.972 27.4727L842.012 29.7682L844.307 36.7288Z" fill="#D1D5DB"/>
<path d="M859.042 31.9153C861.707 31.0267 864.151 30.2862 866.002 29.6198C865.41 27.6945 864.595 25.2509 863.707 22.6592L856.746 24.9547L859.042 31.9153Z" fill="#D1D5DB"/>
<path d="M864.892 13.7734C866.818 13.181 867.854 11.1076 867.262 9.18237C866.67 7.25709 864.596 6.2204 862.671 6.8128L833.496 16.2911C831.718 16.9575 830.682 18.8828 831.2 20.734C831.792 22.7334 833.792 23.9182 835.717 23.2517C835.791 23.2517 864.892 13.7734 864.892 13.7734Z" fill="#D1D5DB"/>
<path d="M839.569 21.9925C841.494 21.4001 843.938 20.5855 846.53 19.6969C845.641 17.0312 844.901 14.5876 844.234 12.7363L837.273 15.0319L839.569 21.9925Z" fill="#D1D5DB"/>
<path d="M854.229 17.2532C856.895 16.3646 859.339 15.6241 861.19 14.9577C860.301 12.2919 859.561 9.8483 858.894 7.99707L851.934 10.2926L854.229 17.2532Z" fill="#D1D5DB"/>
<path d="M899.251 11.9966C900.51 12.589 900.658 12.9592 899.621 14.8845C898.585 16.8838 898.363 16.9579 897.03 16.4395C895.401 15.7731 893.401 15.2547 892.068 15.2547C889.921 15.2547 888.514 15.9952 888.514 17.18C888.514 21.0306 900.88 18.9572 900.88 27.2507C900.88 31.3974 897.326 34.1373 891.994 34.1373C889.181 34.1373 885.7 33.1746 883.331 31.9898C882.146 31.3974 882.072 31.0272 883.108 29.0279C883.997 27.3247 884.293 27.1026 885.552 27.6209C887.625 28.5095 890.143 29.176 891.92 29.176C893.92 29.176 895.179 28.3614 895.179 27.1766C895.179 23.4001 882.59 25.1773 882.59 17.18C882.59 12.9592 886.145 10.0713 891.402 10.0713C893.92 10.2934 897.104 11.0339 899.251 11.9966Z" fill="#D1D5DB"/>
<path d="M909.249 2.22158V33.026C909.249 33.4703 908.73 33.9887 908.064 33.9887H904.806C904.065 33.9887 903.621 33.4703 903.621 33.026V2.22158C903.621 0.666545 904.065 0.592495 906.435 0.592495C909.101 0.518446 909.249 0.740594 909.249 2.22158Z" fill="#D1D5DB"/>
<path d="M917.32 27.1762C917.32 28.7312 918.653 29.7679 920.652 29.7679C923.095 29.7679 925.317 28.5831 926.576 26.5838V24.5104C925.317 23.9921 923.688 23.7699 922.281 23.7699C919.319 23.7699 917.32 25.2509 917.32 27.1762ZM932.204 19.4751V32.7299C932.204 33.4704 931.685 33.9146 931.019 33.9146H927.835C927.094 33.9146 926.576 33.3963 926.65 32.6558L926.724 31.2489C925.021 33.1742 922.503 34.2108 919.985 34.2108C915.172 34.2108 911.914 31.397 911.914 27.2502C911.914 22.8073 915.542 19.8453 921.096 19.8453C923.17 19.8453 925.095 20.2156 926.65 20.882V19.327C926.65 16.8833 924.725 15.4024 921.466 15.4024C919.911 15.4024 918.06 15.9948 916.579 16.8833C915.394 17.5498 915.172 17.4757 913.913 15.6245C912.729 13.7733 912.729 13.403 913.913 12.6625C916.135 11.1816 919.245 10.293 922.059 10.293C928.279 10.293 932.204 13.6992 932.204 19.4751Z" fill="#D1D5DB"/>
<path d="M954.198 12.0705C955.383 12.737 955.383 13.1072 954.124 15.1065C952.939 16.9578 952.717 17.1059 951.384 16.4394C950.421 15.9211 948.792 15.4768 947.533 15.4768C943.461 15.4768 940.795 18.1426 940.795 22.2153C940.795 26.4361 943.461 29.2499 947.533 29.2499C948.94 29.2499 950.718 28.7316 951.828 28.0651C953.013 27.3987 953.235 27.3987 954.494 29.2499C955.605 30.9531 955.605 31.3233 954.568 32.0638C952.791 33.3226 949.903 34.2853 947.385 34.2853C939.906 34.2853 934.871 29.4721 934.871 22.2893C934.871 15.1065 939.906 10.3674 947.459 10.3674C949.829 10.2934 952.495 11.0338 954.198 12.0705Z" fill="#D1D5DB"/>
<path d="M978.71 31.027C979.673 32.2118 979.303 32.6561 976.933 33.4706C974.564 34.3592 974.193 34.2851 973.379 33.1744L966.64 24.2145L963.604 27.1024V32.9523C963.604 33.3965 963.086 33.9149 962.42 33.9149H959.161C958.421 33.9149 957.977 33.3965 957.977 32.9523V2.22185C957.977 0.666823 958.421 0.592773 960.79 0.592773C963.53 0.592773 963.604 0.814921 963.604 2.22185V19.6975L972.786 10.8856C973.823 9.92297 974.341 9.99702 976.193 11.1818C978.192 12.4406 978.34 12.8109 977.377 13.7735L970.565 20.4379L978.71 31.027Z" fill="#D1D5DB"/>
</g>
<g clip-path="url(#clip5_150_4111)">
<path d="M1112.36 10.6349C1112.36 12.1347 1111.13 13.4299 1109.56 13.4299C1107.99 13.4299 1106.77 12.2028 1106.77 10.6349C1106.77 9.06691 1107.93 7.83981 1109.56 7.83981C1111.2 7.97615 1112.36 9.20325 1112.36 10.6349ZM1100.97 16.225C1100.97 16.4977 1100.97 16.9067 1100.97 16.9067C1100.97 16.9067 1099.68 15.2024 1096.88 15.2024C1092.25 15.2024 1088.63 18.7474 1088.63 23.5876C1088.63 28.4278 1092.18 31.9728 1096.88 31.9728C1099.75 31.9728 1100.97 30.2003 1100.97 30.2003V30.9502C1100.97 31.2911 1101.25 31.5637 1101.59 31.5637H1104.99V15.6114C1104.99 15.6114 1101.86 15.6114 1101.59 15.6114C1101.25 15.6114 1100.97 15.9523 1100.97 16.225ZM1100.97 26.4508C1100.36 27.4052 1099.06 28.2233 1097.56 28.2233C1094.84 28.2233 1092.79 26.519 1092.79 23.6558C1092.79 20.7925 1094.91 19.0882 1097.56 19.0882C1099.06 19.0882 1100.43 19.9063 1100.97 20.8607V26.4508ZM1107.59 15.6114H1111.68V31.5637H1107.59V15.6114ZM1168.46 15.2024C1165.67 15.2024 1164.37 16.9067 1164.37 16.9067V7.97615H1160.28V31.6319C1160.28 31.6319 1163.42 31.6319 1163.69 31.6319C1164.03 31.6319 1164.3 31.3592 1164.3 31.0184V30.2685C1164.3 30.2685 1165.6 32.041 1168.39 32.041C1173.03 32.041 1176.64 28.496 1176.64 23.6558C1176.71 18.7474 1173.1 15.2024 1168.46 15.2024ZM1167.78 28.1551C1166.21 28.1551 1164.99 27.3371 1164.37 26.3827V20.6562C1164.99 19.8381 1166.35 18.8837 1167.78 18.8837C1170.51 18.8837 1172.55 20.588 1172.55 23.4512C1172.55 26.3145 1170.51 28.1551 1167.78 28.1551ZM1158.17 22.156V31.7001H1154.08V22.6332C1154.08 19.9745 1153.26 18.9519 1150.94 18.9519C1149.72 18.9519 1148.42 19.5654 1147.6 20.5198V31.6319H1143.51V15.6114H1146.72C1147.06 15.6114 1147.33 15.8841 1147.33 16.225V16.9067C1148.49 15.6796 1150.12 15.2024 1151.69 15.2024C1153.47 15.2024 1154.97 15.6796 1156.12 16.7022C1157.62 17.9293 1158.17 19.4291 1158.17 22.156ZM1133.63 15.2024C1130.83 15.2024 1129.54 16.9067 1129.54 16.9067V7.97615H1125.45V31.6319C1125.45 31.6319 1128.58 31.6319 1128.86 31.6319C1129.2 31.6319 1129.47 31.3592 1129.47 31.0184V30.2685C1129.47 30.2685 1130.76 32.041 1133.56 32.041C1138.19 32.041 1141.81 28.496 1141.81 23.6558C1141.88 18.7474 1138.26 15.2024 1133.63 15.2024ZM1132.95 28.1551C1131.38 28.1551 1130.15 27.3371 1129.54 26.3827V20.6562C1130.15 19.8381 1131.51 18.8837 1132.95 18.8837C1135.67 18.8837 1137.72 20.588 1137.72 23.4512C1137.72 26.3145 1135.67 28.1551 1132.95 28.1551ZM1121.9 15.2024C1123.13 15.2024 1123.74 15.4069 1123.74 15.4069V19.1564C1123.74 19.1564 1120.33 17.9975 1118.22 20.4517V31.6319H1114.13V15.6114C1114.13 15.6114 1117.27 15.6114 1117.54 15.6114C1117.88 15.6114 1118.15 15.8841 1118.15 16.225V16.9067C1118.97 16.0205 1120.67 15.2024 1121.9 15.2024ZM1079.57 30.2003C1079.36 29.7231 1079.16 29.1095 1078.95 28.7005C1078.61 27.9506 1078.27 27.2007 1078 26.519L1077.93 26.4508C1075 20.1108 1071.86 13.6344 1068.52 7.22626L1068.39 6.95357C1068.05 6.34002 1067.7 5.6583 1067.36 4.97657C1066.95 4.22668 1066.55 3.40861 1065.86 2.65872C1064.5 0.954411 1062.52 0 1060.48 0C1058.36 0 1056.46 0.954411 1055.02 2.52237C1054.34 3.34044 1053.87 4.09033 1053.46 4.9084C1053.12 5.59012 1052.77 6.27185 1052.43 6.8854L1052.3 7.15808C1049.03 13.4981 1045.82 19.9745 1042.89 26.3827L1042.82 26.4508C1042.55 27.1325 1042.21 27.8824 1041.87 28.6323C1041.66 29.1095 1041.46 29.5868 1041.25 30.1321C1040.71 31.7001 1040.5 33.1999 1040.78 34.6997C1041.25 37.9038 1043.37 40.5625 1046.3 41.7214C1047.39 42.1986 1048.55 42.4031 1049.71 42.4031C1050.05 42.4031 1050.46 42.335 1050.8 42.335C1052.23 42.1986 1053.66 41.7214 1055.02 40.9033C1056.8 39.9489 1058.43 38.5173 1060.27 36.4721C1062.11 38.5173 1063.82 39.8808 1065.52 40.9033C1066.95 41.7214 1068.39 42.1986 1069.75 42.335C1070.09 42.4031 1070.5 42.4031 1070.84 42.4031C1072 42.4031 1073.23 42.1986 1074.25 41.7214C1077.25 40.5625 1079.29 37.8356 1079.77 34.6997C1080.25 33.1999 1080.11 31.7683 1079.57 30.2003ZM1060.41 32.3818C1058.09 29.5186 1056.66 26.7917 1056.12 24.4738C1055.91 23.5194 1055.84 22.6332 1055.98 21.8833C1056.05 21.2016 1056.32 20.588 1056.66 20.1108C1057.48 18.9519 1058.84 18.2702 1060.41 18.2702C1061.98 18.2702 1063.41 18.9519 1064.16 20.1108C1064.5 20.588 1064.77 21.2016 1064.84 21.8833C1064.98 22.6332 1064.91 23.5194 1064.7 24.4738C1064.16 26.7235 1062.66 29.4504 1060.41 32.3818ZM1077.32 34.3588C1077.04 36.5403 1075.54 38.4491 1073.43 39.3354C1072.41 39.7444 1071.32 39.8808 1070.23 39.7444C1069.14 39.6081 1068.11 39.2672 1067.02 38.6537C1065.52 37.8356 1063.96 36.4721 1062.18 34.5633C1064.98 31.1547 1066.68 27.9506 1067.3 25.1556C1067.57 23.8603 1067.64 22.6332 1067.5 21.5424C1067.36 20.4517 1066.95 19.4973 1066.34 18.6792C1065.05 16.7704 1062.8 15.6796 1060.34 15.6796C1057.89 15.6796 1055.64 16.8385 1054.34 18.6792C1053.73 19.4973 1053.39 20.5198 1053.18 21.5424C1053.05 22.6332 1053.05 23.8603 1053.39 25.1556C1054 27.9506 1055.77 31.1547 1058.5 34.5633C1056.73 36.5403 1055.16 37.8356 1053.66 38.6537C1052.57 39.2672 1051.48 39.6081 1050.46 39.7444C1049.3 39.8808 1048.21 39.6762 1047.25 39.3354C1045.14 38.5173 1043.71 36.5403 1043.37 34.3588C1043.23 33.2681 1043.3 32.2455 1043.78 31.0184C1043.91 30.6093 1044.12 30.2003 1044.32 29.6549C1044.59 28.9732 1044.94 28.2233 1045.28 27.5416L1045.34 27.4734C1048.28 21.1334 1051.41 14.657 1054.68 8.38518L1054.82 8.1125C1055.16 7.49895 1055.5 6.81722 1055.84 6.1355C1056.18 5.45378 1056.59 4.84023 1057 4.29485C1057.89 3.27227 1059.11 2.72689 1060.41 2.72689C1061.71 2.72689 1062.93 3.27227 1063.82 4.29485C1064.3 4.84023 1064.64 5.45378 1064.98 6.1355C1065.32 6.74905 1065.66 7.43077 1066 8.1125L1066.14 8.38518C1069.34 14.7252 1072.48 21.2016 1075.41 27.4734V27.5416C1075.75 28.2233 1076.02 28.9732 1076.36 29.6549C1076.57 30.1321 1076.77 30.6093 1076.91 31.0184C1077.39 32.1773 1077.52 33.2681 1077.32 34.3588Z" fill="#D1D5DB"/>
</g>
<g clip-path="url(#clip6_150_4111)">
<path d="M1270.41 15.0968H1255.19V19.5869H1265.99C1265.47 25.899 1260.2 28.6321 1255.19 28.6321C1248.81 28.6321 1243.28 23.6215 1243.28 16.5935C1243.34 9.7608 1248.61 4.55492 1255.25 4.55492C1260.39 4.55492 1263.39 7.8086 1263.39 7.8086L1266.58 4.55492C1266.58 4.55492 1262.54 0.0648504 1255.12 0.0648504C1245.62 -0.000223081 1238.4 7.93874 1238.4 16.5284C1238.4 24.9229 1245.23 33.1222 1255.32 33.1222C1264.17 33.1222 1270.67 27.0703 1270.67 18.0902C1270.67 16.2031 1270.41 15.0968 1270.41 15.0968Z" fill="#D1D5DB"/>
<path d="M1282.84 11.8428C1276.6 11.8428 1272.11 16.7233 1272.11 22.3847C1272.11 28.1762 1276.47 33.1218 1282.91 33.1218C1288.76 33.1218 1293.51 28.6317 1293.51 22.5148C1293.51 15.4218 1287.98 11.8428 1282.84 11.8428ZM1282.91 16.0075C1285.97 16.0075 1288.89 18.4803 1288.89 22.4498C1288.89 26.3542 1286.03 28.892 1282.91 28.892C1279.52 28.892 1276.86 26.1589 1276.86 22.3847C1276.79 18.7406 1279.46 16.0075 1282.91 16.0075Z" fill="#D1D5DB"/>
<path d="M1306.14 11.8428C1299.89 11.8428 1295.4 16.7233 1295.4 22.3847C1295.4 28.1762 1299.76 33.1218 1306.2 33.1218C1312.06 33.1218 1316.81 28.6317 1316.81 22.5148C1316.81 15.4218 1311.28 11.8428 1306.14 11.8428ZM1306.2 16.0075C1309.26 16.0075 1312.19 18.4803 1312.19 22.4498C1312.19 26.3542 1309.33 28.892 1306.2 28.892C1302.82 28.892 1300.15 26.1589 1300.15 22.3847C1300.09 18.7406 1302.76 16.0075 1306.2 16.0075Z" fill="#D1D5DB"/>
<path d="M1328.98 11.8428C1323.25 11.8428 1318.76 16.8534 1318.76 22.5148C1318.76 28.892 1323.97 33.1869 1328.91 33.1869C1331.97 33.1869 1333.53 31.9505 1334.77 30.5839V32.6663C1334.77 36.3104 1332.56 38.5229 1329.17 38.5229C1325.92 38.5229 1324.29 36.1152 1323.71 34.7486L1319.54 36.4405C1320.97 39.499 1323.9 42.6876 1329.11 42.6876C1334.77 42.6876 1339.13 39.1086 1339.13 31.56V12.4935H1334.64V14.3156C1333.34 12.8189 1331.45 11.8428 1328.98 11.8428ZM1329.37 16.0075C1332.17 16.0075 1335.03 18.4152 1335.03 22.5148C1335.03 26.6795 1332.17 28.9571 1329.3 28.9571C1326.25 28.9571 1323.38 26.4843 1323.38 22.5148C1323.45 18.4152 1326.38 16.0075 1329.37 16.0075Z" fill="#D1D5DB"/>
<path d="M1359.05 11.7783C1353.64 11.7783 1349.09 16.0732 1349.09 22.3853C1349.09 29.0879 1354.17 33.0573 1359.57 33.0573C1364.06 33.0573 1366.85 30.5846 1368.48 28.3721L1364.77 25.8993C1363.8 27.396 1362.23 28.8276 1359.57 28.8276C1356.57 28.8276 1355.21 27.2007 1354.36 25.5739L1368.61 19.6522L1367.9 17.8952C1366.46 14.6416 1363.28 11.7783 1359.05 11.7783ZM1359.18 15.8779C1361.13 15.8779 1362.49 16.9191 1363.15 18.1555L1353.58 22.125C1353.19 19.0666 1356.12 15.8779 1359.18 15.8779Z" fill="#D1D5DB"/>
<path d="M1342.25 32.4709H1346.94V1.10547H1342.25V32.4709Z" fill="#D1D5DB"/>
</g>
<defs>
<clipPath id="clip0_150_4111">
<rect width="141.519" height="42.9485" fill="white"/>
</clipPath>
<clipPath id="clip1_150_4111">
<rect width="130.798" height="42.9485" fill="white" transform="translate(202.875)"/>
</clipPath>
<clipPath id="clip2_150_4111">
<rect width="171.794" height="42.9485" fill="white" transform="translate(395.027)"/>
</clipPath>
<clipPath id="clip3_150_4111">
<rect width="141.519" height="42.9485" fill="white" transform="translate(628.176)"/>
</clipPath>
<clipPath id="clip4_150_4111">
<rect width="148.098" height="42.9485" fill="white" transform="translate(831.051)"/>
</clipPath>
<clipPath id="clip5_150_4111">
<rect width="136.344" height="42.9485" fill="white" transform="translate(1040.5)"/>
</clipPath>
<clipPath id="clip6_150_4111">
<rect width="130.798" height="42.9485" fill="white" transform="translate(1238.2)"/>
</clipPath>
</defs>
</svg>
