<svg width="94" height="94" viewBox="0 0 94 94" fill="none" xmlns="http://www.w3.org/2000/svg">
<circle cx="47" cy="47" r="47" fill="#7BBDBC" fill-opacity="0.15"/>
<path opacity="0.4" d="M47.0013 60.3337C54.3651 60.3337 60.3346 54.3641 60.3346 47.0003C60.3346 39.6365 54.3651 33.667 47.0013 33.667C39.6375 33.667 33.668 39.6365 33.668 47.0003C33.668 54.3641 39.6375 60.3337 47.0013 60.3337Z" fill="#045E5E"/>
<path d="M47.0008 52.1998C49.8727 52.1998 52.2008 49.8717 52.2008 46.9998C52.2008 44.1279 49.8727 41.7998 47.0008 41.7998C44.1289 41.7998 41.8008 44.1279 41.8008 46.9998C41.8008 49.8717 44.1289 52.1998 47.0008 52.1998Z" fill="#045E5E"/>
<path d="M48.25 30.333V33.733H48.2333C47.8333 33.683 47.4167 33.6663 47 33.6663C46.5833 33.6663 46.1667 33.683 45.7667 33.733H45.75V30.333C45.75 29.6497 46.3167 29.083 47 29.083C47.6833 29.083 48.25 29.6497 48.25 30.333Z" fill="#045E5E"/>
<path d="M33.6654 47C33.6654 47.4167 33.682 47.85 33.732 48.25H30.332C29.6487 48.25 29.082 47.6833 29.082 47C29.082 46.3167 29.6487 45.75 30.332 45.75H33.732C33.682 46.15 33.6654 46.5833 33.6654 47Z" fill="#045E5E"/>
<path d="M48.25 60.2666V63.6666C48.25 64.3499 47.6833 64.9166 47 64.9166C46.3167 64.9166 45.75 64.3499 45.75 63.6666V60.2666H45.7667C46.1667 60.3166 46.5833 60.3333 47 60.3333C47.4167 60.3333 47.8333 60.3166 48.2333 60.2666H48.25Z" fill="#045E5E"/>
<path d="M64.9156 47C64.9156 47.6833 64.349 48.25 63.6656 48.25H60.2656C60.3156 47.85 60.3323 47.4167 60.3323 47C60.3323 46.5833 60.3156 46.15 60.2656 45.75H63.6656C64.349 45.75 64.9156 46.3167 64.9156 47Z" fill="#045E5E"/>
</svg>
