<svg width="40" height="40" viewBox="0 0 40 40" fill="none" xmlns="http://www.w3.org/2000/svg">
<path opacity="0.4" d="M27.068 3.33301H12.9346C8.33464 3.33301 6.66797 4.99967 6.66797 9.68301V30.3163C6.66797 34.9997 8.33464 36.6663 12.9346 36.6663H27.0513C31.668 36.6663 33.3346 34.9997 33.3346 30.3163V9.68301C33.3346 4.99967 31.668 3.33301 27.068 3.33301Z" fill="#045E5E"/>
<path d="M23.3346 10.417H16.668C15.9846 10.417 15.418 9.85033 15.418 9.16699C15.418 8.48366 15.9846 7.91699 16.668 7.91699H23.3346C24.018 7.91699 24.5846 8.48366 24.5846 9.16699C24.5846 9.85033 24.018 10.417 23.3346 10.417Z" fill="#045E5E"/>
<path d="M19.9987 32.1663C21.6095 32.1663 22.9154 30.8605 22.9154 29.2497C22.9154 27.6388 21.6095 26.333 19.9987 26.333C18.3879 26.333 17.082 27.6388 17.082 29.2497C17.082 30.8605 18.3879 32.1663 19.9987 32.1663Z" fill="#045E5E"/>
</svg>
