<svg width="40" height="40" viewBox="0 0 40 40" fill="none" xmlns="http://www.w3.org/2000/svg">
<path d="M8.7487 14.1663C11.7402 14.1663 14.1654 11.7412 14.1654 8.74967C14.1654 5.75813 11.7402 3.33301 8.7487 3.33301C5.75716 3.33301 3.33203 5.75813 3.33203 8.74967C3.33203 11.7412 5.75716 14.1663 8.7487 14.1663Z" fill="#045E5E"/>
<path d="M8.33203 36.667C11.0935 36.667 13.332 34.4284 13.332 31.667C13.332 28.9056 11.0935 26.667 8.33203 26.667C5.57061 26.667 3.33203 28.9056 3.33203 31.667C3.33203 34.4284 5.57061 36.667 8.33203 36.667Z" fill="#045E5E"/>
<path d="M31.668 36.667C34.4294 36.667 36.668 34.4284 36.668 31.667C36.668 28.9056 34.4294 26.667 31.668 26.667C28.9065 26.667 26.668 28.9056 26.668 31.667C26.668 34.4284 28.9065 36.667 31.668 36.667Z" fill="#045E5E"/>
<path opacity="0.4" d="M31.9487 26.6337C30.332 22.0004 25.9654 18.8837 21.0487 18.8837C21.032 18.8837 21.0154 18.8837 20.9987 18.8837L15.1154 18.9004C12.582 18.9337 10.3154 17.2171 9.63203 14.7504V11.667C9.63203 10.967 9.06537 10.4004 8.3487 10.4004C7.63203 10.4004 7.08203 10.967 7.08203 11.667V30.367C7.08203 31.067 7.6487 31.6337 8.3487 31.6337C9.0487 31.6337 9.63203 31.067 9.63203 30.367V19.3337C11.0987 20.6337 13.0154 21.4337 15.0987 21.4337C15.1154 21.4337 15.1154 21.4337 15.132 21.4337L21.0154 21.4171C21.032 21.4171 21.032 21.4171 21.0487 21.4171C24.8654 21.4171 28.282 23.8337 29.532 27.4504C29.7154 27.9837 30.2154 28.3004 30.732 28.3004C30.8654 28.3004 31.0154 28.2837 31.1487 28.2337C31.832 28.0337 32.182 27.3004 31.9487 26.6337Z" fill="#045E5E"/>
</svg>
