<svg width="94" height="94" viewBox="0 0 94 94" fill="none" xmlns="http://www.w3.org/2000/svg">
<circle cx="47" cy="47" r="47" fill="#7BBDBC" fill-opacity="0.15"/>
<path opacity="0.4" d="M57 58.4329H55.7333C54.4 58.4329 53.1333 58.9496 52.2 59.8829L49.35 62.6996C48.05 63.9829 45.9333 63.9829 44.6333 62.6996L41.7833 59.8829C40.85 58.9496 39.5667 58.4329 38.25 58.4329H37C34.2333 58.4329 32 56.2163 32 53.483V35.2996C32 32.5662 34.2333 30.3496 37 30.3496H57C59.7667 30.3496 62 32.5662 62 35.2996V53.483C62 56.1996 59.7667 58.4329 57 58.4329Z" fill="#045E5E"/>
<path d="M44.2984 51.1836H39.8318C39.0984 51.1836 38.4151 50.8336 37.9818 50.2336C37.5651 49.6669 37.4651 48.9669 37.6651 48.3003C38.2484 46.5169 39.6818 45.5502 40.9484 44.6835C42.2818 43.7835 43.0318 43.2169 43.0318 42.2503C43.0318 41.3836 42.3317 40.6836 41.4651 40.6836C40.5984 40.6836 39.8984 41.3836 39.8984 42.2503C39.8984 42.9336 39.3318 43.5003 38.6484 43.5003C37.9651 43.5003 37.3984 42.9336 37.3984 42.2503C37.3984 40.0169 39.2151 38.1836 41.4651 38.1836C43.7151 38.1836 45.5318 40.0003 45.5318 42.2503C45.5318 44.6003 43.7651 45.8002 42.3484 46.7669C41.4651 47.3669 40.6317 47.9336 40.2151 48.6836H44.2818C44.9651 48.6836 45.5318 49.2502 45.5318 49.9336C45.5318 50.6169 44.9818 51.1836 44.2984 51.1836Z" fill="#045E5E"/>
<path d="M53.7315 51.1839C53.0482 51.1839 52.4815 50.6172 52.4815 49.9339V48.7839H49.2148C49.2148 48.7839 49.2148 48.7839 49.1982 48.7839C48.3815 48.7839 47.6315 48.3506 47.2148 47.6506C46.7982 46.9339 46.7982 46.0506 47.2148 45.3506C48.3482 43.4006 49.6648 41.1838 50.8648 39.2505C51.3982 38.4005 52.4148 38.0172 53.3648 38.2839C54.3148 38.5672 54.9815 39.4339 54.9648 40.4339V46.3006H55.3315C56.0148 46.3006 56.5815 46.8672 56.5815 47.5506C56.5815 48.2339 56.0148 48.8006 55.3315 48.8006H54.9815V49.9506C54.9815 50.6339 54.4315 51.1839 53.7315 51.1839ZM52.4815 41.4006C51.4982 43.0006 50.4815 44.7172 49.5648 46.2839H52.4815V41.4006Z" fill="#045E5E"/>
</svg>
