<svg width="32" height="32" viewBox="0 0 32 32" fill="none" xmlns="http://www.w3.org/2000/svg">
<path opacity="0.4" d="M2.66797 17.1736V14.8269C2.66797 13.4402 3.8013 12.2936 5.2013 12.2936C7.61464 12.2936 8.6013 10.5869 7.38797 8.49357C6.69464 7.29357 7.10797 5.73357 8.3213 5.04024L10.628 3.72024C11.6813 3.09357 13.0413 3.46691 13.668 4.52024L13.8146 4.77357C15.0146 6.86691 16.988 6.86691 18.2013 4.77357L18.348 4.52024C18.9746 3.46691 20.3346 3.09357 21.388 3.72024L23.6946 5.04024C24.908 5.73357 25.3213 7.29357 24.628 8.49357C23.4146 10.5869 24.4013 12.2936 26.8146 12.2936C28.2013 12.2936 29.348 13.4269 29.348 14.8269V17.1736C29.348 18.5602 28.2146 19.7069 26.8146 19.7069C24.4013 19.7069 23.4146 21.4136 24.628 23.5069C25.3213 24.7202 24.908 26.2669 23.6946 26.9602L21.388 28.2802C20.3346 28.9069 18.9746 28.5336 18.348 27.4802L18.2013 27.2269C17.0013 25.1336 15.028 25.1336 13.8146 27.2269L13.668 27.4802C13.0413 28.5336 11.6813 28.9069 10.628 28.2802L8.3213 26.9602C7.10797 26.2669 6.69464 24.7069 7.38797 23.5069C8.6013 21.4136 7.61464 19.7069 5.2013 19.7069C3.8013 19.7069 2.66797 18.5602 2.66797 17.1736Z" fill="#045E5E"/>
<path d="M16.0013 20.3337C18.3945 20.3337 20.3346 18.3936 20.3346 16.0003C20.3346 13.6071 18.3945 11.667 16.0013 11.667C13.6081 11.667 11.668 13.6071 11.668 16.0003C11.668 18.3936 13.6081 20.3337 16.0013 20.3337Z" fill="#045E5E"/>
</svg>
