<svg width="105" height="32" viewBox="0 0 105 32" fill="none" xmlns="http://www.w3.org/2000/svg">
<g clip-path="url(#clip0_129_11048)">
<path d="M15.701 0.104492C7.04197 0.104492 0 7.09431 0 15.7533C0 24.4123 7.04197 31.4543 15.701 31.4543C24.36 31.4543 31.402 24.4123 31.402 15.7533C31.3498 7.09431 24.36 0.104492 15.701 0.104492ZM22.8473 22.691C22.5865 23.1604 21.9605 23.3169 21.4911 23.004C17.7875 20.761 13.1972 20.2393 7.72009 21.4912C7.19846 21.5956 6.67684 21.2826 6.57251 20.761C6.46818 20.2393 6.78116 19.7177 7.30279 19.6134C13.3015 18.2571 18.4135 18.8309 22.5343 21.3869C23.0038 21.6477 23.1603 22.2215 22.8473 22.691ZM24.7773 18.4136C24.4122 18.9874 23.6819 19.1961 23.1081 18.8309C18.8829 16.2228 12.4669 15.4925 7.51144 17.0052C6.88549 17.2139 6.20737 16.8487 5.99872 16.1706C5.79007 15.5447 6.15521 14.8666 6.83332 14.6579C12.5191 12.9365 19.6132 13.7711 24.4643 16.7444C24.9338 17.1096 25.1425 17.8398 24.7773 18.4136ZM24.9338 13.9798C19.874 10.9544 11.528 10.6935 6.729 12.1541C5.94656 12.4149 5.11195 11.9454 4.9033 11.163C4.69465 10.4327 5.11195 9.59812 5.89439 9.38947C11.4236 7.72026 20.6565 8.03324 26.4465 11.476C27.1246 11.8933 27.3855 12.78 26.9682 13.5103C26.5509 14.1884 25.6641 14.3971 24.9338 13.9798ZM42.6692 14.5536C39.9567 13.9276 39.4872 13.4582 39.4872 12.5192C39.4872 11.6325 40.3218 11.0065 41.5737 11.0065C42.7735 11.0065 44.0254 11.476 45.2773 12.4149C45.3295 12.4671 45.3816 12.4671 45.4338 12.4671C45.4859 12.4671 45.5381 12.4149 45.5381 12.4149L46.8422 10.537C46.8943 10.4849 46.8943 10.3806 46.79 10.2762C45.2773 9.07649 43.5559 8.45054 41.5737 8.45054C38.6526 8.45054 36.6183 10.2241 36.6183 12.7279C36.6183 15.4404 38.3918 16.3793 41.4172 17.1096C44.0254 17.6833 44.4427 18.205 44.4427 19.0917C44.4427 20.0828 43.5559 20.7088 42.1475 20.7088C40.5826 20.7088 39.2786 20.1872 37.818 18.9353C37.7658 18.8831 37.7137 18.8831 37.7137 18.8831C37.6615 18.8831 37.6094 18.9353 37.6094 18.9353L36.1488 20.7088C36.0966 20.761 36.0966 20.9174 36.1488 20.9696C37.818 22.4823 39.9045 23.2648 42.0954 23.2648C45.2251 23.2648 47.2595 21.5434 47.2595 18.8831C47.3116 16.6401 45.9554 15.3882 42.6692 14.5536ZM54.4058 11.8933C53.0495 11.8933 51.902 12.4149 51.0152 13.5103V12.2584C51.0152 12.1541 50.9109 12.1019 50.8587 12.1019H48.4592C48.3549 12.1019 48.3027 12.2063 48.3027 12.2584V26.0816C48.3027 26.1859 48.4071 26.238 48.4592 26.238H50.8587C50.963 26.238 51.0152 26.1337 51.0152 26.0816V21.752C51.9541 22.7953 53.0495 23.3169 54.4058 23.3169C56.9618 23.3169 59.5177 21.3869 59.5177 17.6312C59.5177 13.8755 56.9618 11.8933 54.4058 11.8933ZM56.7009 17.579C56.7009 19.4569 55.5534 20.8131 53.832 20.8131C52.1628 20.8131 50.9109 19.4047 50.9109 17.579C50.9109 15.7533 52.1628 14.3449 53.832 14.3449C55.5012 14.3449 56.7009 15.7012 56.7009 17.579ZM66.0902 11.8933C62.804 11.8933 60.248 14.3971 60.248 17.6312C60.248 20.8131 62.804 23.3169 66.0381 23.3169C69.3243 23.3169 71.8803 20.8131 71.8803 17.6312C71.9325 14.3971 69.3765 11.8933 66.0902 11.8933ZM66.0902 20.8131C64.3689 20.8131 63.0648 19.4047 63.0648 17.579C63.0648 15.7012 64.3167 14.3971 66.0902 14.3971C67.8638 14.3971 69.1678 15.8055 69.1678 17.6312C69.1157 19.509 67.8638 20.8131 66.0902 20.8131ZM78.8701 12.1019H76.2098V9.38947C76.2098 9.28514 76.1055 9.23298 76.0533 9.23298H73.6538C73.5495 9.23298 73.4973 9.33731 73.4973 9.38947V12.1019H72.3498C72.2454 12.1019 72.1933 12.2063 72.1933 12.2584V14.3449C72.1933 14.4493 72.2976 14.5014 72.3498 14.5014H73.4973V19.8742C73.4973 22.065 74.5928 23.1604 76.7314 23.1604C77.6182 23.1604 78.2963 23.004 78.9744 22.5867C79.0266 22.5345 79.0788 22.4823 79.0788 22.4302V20.448C79.0788 20.3958 79.0266 20.3437 78.9744 20.2915C78.9223 20.2393 78.8701 20.2393 78.818 20.2915C78.3485 20.5001 77.879 20.6566 77.4096 20.6566C76.6271 20.6566 76.262 20.2915 76.262 19.509V14.5014H78.9223C79.0266 14.5014 79.0788 14.3971 79.0788 14.3449V12.2584C79.0788 12.2063 78.9744 12.1019 78.8701 12.1019ZM88.1551 12.1541V11.8411C88.1551 10.85 88.5202 10.4327 89.3548 10.4327C89.8765 10.4327 90.2416 10.537 90.7111 10.6935C90.7632 10.6935 90.8154 10.6935 90.8675 10.6935C90.9197 10.6414 90.9197 10.5892 90.9197 10.537V8.5027C90.9197 8.45054 90.8676 8.34621 90.8154 8.34621C90.3459 8.18972 89.72 8.03324 88.781 8.03324C86.538 8.03324 85.3383 9.28514 85.3383 11.6846V12.2063H84.1907C84.0864 12.2063 84.0342 12.3106 84.0342 12.3627V14.4493C84.0342 14.5536 84.1385 14.6057 84.1907 14.6057H85.3383V22.8996C85.3383 23.004 85.4426 23.0561 85.4948 23.0561H87.8943C87.9986 23.0561 88.0508 22.9518 88.0508 22.8996V14.5536H90.2938L93.7365 22.8475C93.3192 23.7342 92.9541 23.8907 92.4324 23.8907C92.0151 23.8907 91.5457 23.7864 91.0762 23.5256C91.024 23.5256 90.9719 23.4734 90.9197 23.5256C90.8676 23.5256 90.8154 23.5777 90.8154 23.6299L89.9808 25.4556C89.9286 25.5599 89.9808 25.6643 90.033 25.6643C90.8676 26.1337 91.65 26.3424 92.6411 26.3424C94.4146 26.3424 95.4057 25.5078 96.2925 23.2648L100.518 12.4149C100.518 12.3627 100.518 12.3106 100.518 12.2584C100.465 12.2063 100.413 12.2063 100.361 12.2063H98.066C98.0138 12.2063 97.9095 12.2584 97.9095 12.3106L95.3014 19.7177L92.4846 12.3106C92.4324 12.2584 92.3803 12.2063 92.3281 12.2063L88.1551 12.1541ZM82.7823 12.1019H80.3828C80.2785 12.1019 80.2263 12.2063 80.2263 12.2584V22.8475C80.2263 22.9518 80.3307 23.004 80.3828 23.004H82.7823C82.8866 23.004 82.9388 22.8996 82.9388 22.8475V12.3106C82.991 12.2063 82.8866 12.1019 82.7823 12.1019ZM81.5826 7.30296C80.6436 7.30296 79.8612 8.0854 79.8612 9.02433C79.8612 9.96326 80.6436 10.7457 81.5826 10.7457C82.5215 10.7457 83.3039 9.96326 83.3039 9.02433C83.3039 8.0854 82.5737 7.30296 81.5826 7.30296ZM102.813 15.5447C101.874 15.5447 101.091 14.7622 101.091 13.8233C101.091 12.8844 101.822 12.1019 102.813 12.1019C103.804 12.1019 104.534 12.8844 104.534 13.8233C104.534 14.7622 103.804 15.5447 102.813 15.5447ZM102.813 12.2584C101.926 12.2584 101.3 12.9365 101.3 13.8233C101.3 14.6579 101.978 15.336 102.813 15.336C103.7 15.336 104.326 14.6579 104.326 13.7711C104.378 12.9365 103.7 12.2584 102.813 12.2584ZM103.23 13.9798L103.7 14.6579H103.282L102.865 14.032H102.5V14.6579H102.135V12.8844H102.917C103.334 12.8844 103.595 13.093 103.595 13.4582C103.647 13.719 103.439 13.9276 103.23 13.9798ZM102.917 13.1974H102.448V13.7711H102.917C103.126 13.7711 103.282 13.6668 103.282 13.5103C103.282 13.2495 103.126 13.1974 102.917 13.1974Z" fill="#D1D5DB"/>
</g>
<defs>
<clipPath id="clip0_129_11048">
<rect width="104.847" height="31.8193" fill="white"/>
</clipPath>
</defs>
</svg>
