<svg width="94" height="94" viewBox="0 0 94 94" fill="none" xmlns="http://www.w3.org/2000/svg">
<circle cx="47" cy="47" r="47" fill="#7BBDBC" fill-opacity="0.15"/>
<path opacity="0.4" d="M36.5663 53.6663C36.7496 52.8497 36.4163 51.683 35.8329 51.0997L31.7829 47.0497C30.5163 45.783 30.0163 44.433 30.3829 43.2663C30.7663 42.0997 31.9496 41.2997 33.7163 40.9997L38.9163 40.133C39.6663 39.9997 40.5829 39.333 40.9329 38.6497L43.7996 32.8997C44.6329 31.2497 45.7663 30.333 46.9996 30.333C48.2329 30.333 49.3663 31.2497 50.1996 32.8997L53.0663 38.6497C53.2829 39.083 53.7329 39.4997 54.2163 39.783L36.2663 57.733C36.0329 57.9663 35.6329 57.7497 35.6996 57.4163L36.5663 53.6663Z" fill="#045E5E"/>
<path d="M58.168 51.1002C57.568 51.7002 57.2346 52.8502 57.4346 53.6668L58.5846 58.6835C59.068 60.7668 58.768 62.3335 57.7346 63.0835C57.318 63.3835 56.818 63.5335 56.2346 63.5335C55.3846 63.5335 54.3846 63.2168 53.2846 62.5668L48.4013 59.6668C47.6346 59.2168 46.368 59.2168 45.6013 59.6668L40.718 62.5668C38.868 63.6502 37.2846 63.8335 36.268 63.0835C35.8846 62.8002 35.6013 62.4168 35.418 61.9168L55.6846 41.6502C56.4513 40.8835 57.5346 40.5335 58.5846 40.7168L60.268 41.0002C62.0346 41.3002 63.218 42.1002 63.6013 43.2668C63.968 44.4335 63.468 45.7835 62.2013 47.0502L58.168 51.1002Z" fill="#045E5E"/>
</svg>
