<svg width="78" height="78" viewBox="0 0 78 78" fill="none" xmlns="http://www.w3.org/2000/svg">
<circle cx="39" cy="39" r="39" fill="#EBF5F5"/>
<path opacity="0.4" d="M47.3359 33.9997C47.3359 40.4497 41.7359 45.6663 34.8359 45.6663L33.2859 47.533L32.3693 48.6331C31.5859 49.5664 30.0859 49.3663 29.5693 48.2497L27.3359 43.333C24.3026 41.1996 22.3359 37.8163 22.3359 33.9997C22.3359 27.5497 27.9359 22.333 34.8359 22.333C39.8693 22.333 44.2193 25.1164 46.1693 29.1164C46.9193 30.5997 47.3359 32.2497 47.3359 33.9997Z" fill="#045E5E"/>
<path d="M55.6646 40.4338C55.6646 44.2505 53.6979 47.6339 50.6646 49.7672L48.4312 54.6838C47.9146 55.8005 46.4146 56.0172 45.6312 55.0672L43.1646 52.1005C39.1312 52.1005 35.5313 50.3172 33.2812 47.5338L34.8312 45.6672C41.7312 45.6672 47.3312 40.4505 47.3312 34.0005C47.3312 32.2505 46.9146 30.6005 46.1646 29.1172C51.6146 30.3672 55.6646 34.9672 55.6646 40.4338Z" fill="#045E5E"/>
<path d="M38.9974 35.25H30.6641C29.9807 35.25 29.4141 34.6833 29.4141 34C29.4141 33.3167 29.9807 32.75 30.6641 32.75H38.9974C39.6807 32.75 40.2474 33.3167 40.2474 34C40.2474 34.6833 39.6807 35.25 38.9974 35.25Z" fill="#045E5E"/>
</svg>
