<svg width="40" height="40" viewBox="0 0 40 40" fill="none" xmlns="http://www.w3.org/2000/svg">
<path opacity="0.4" d="M21.6667 5.41699H11.6667C5.96667 5.41699 3.75 7.63366 3.75 13.3337V26.667C3.75 30.5003 5.83333 34.5837 11.6667 34.5837H21.6667C27.3667 34.5837 29.5833 32.367 29.5833 26.667V13.3337C29.5833 7.63366 27.3667 5.41699 21.6667 5.41699Z" fill="#045E5E"/>
<path d="M19.1685 18.9669C20.899 18.9669 22.3018 17.564 22.3018 15.8335C22.3018 14.103 20.899 12.7002 19.1685 12.7002C17.438 12.7002 16.0352 14.103 16.0352 15.8335C16.0352 17.564 17.438 18.9669 19.1685 18.9669Z" fill="#045E5E"/>
<path d="M36.0841 10.2834C35.4008 9.93335 33.9674 9.53335 32.0174 10.9L29.5508 12.6334C29.5674 12.8667 29.5841 13.0834 29.5841 13.3334V26.6667C29.5841 26.9167 29.5508 27.1334 29.5508 27.3667L32.0174 29.1C33.0508 29.8334 33.9508 30.0667 34.6674 30.0667C35.2841 30.0667 35.7674 29.9 36.0841 29.7334C36.7674 29.3834 37.9174 28.4334 37.9174 26.05V13.9667C37.9174 11.5834 36.7674 10.6334 36.0841 10.2834Z" fill="#045E5E"/>
</svg>
